<?xml version="1.0" encoding="utf-8" standalone="no"?>
<!DOCTYPE svg PUBLIC "-//W3C//DTD SVG 1.1//EN"
  "http://www.w3.org/Graphics/SVG/1.1/DTD/svg11.dtd">
<svg xmlns:xlink="http://www.w3.org/1999/xlink" width="571.940564pt" height="239.63175pt" viewBox="0 0 571.940564 239.63175" xmlns="http://www.w3.org/2000/svg" version="1.1">
 <metadata>
  <rdf:RDF xmlns:dc="http://purl.org/dc/elements/1.1/" xmlns:cc="http://creativecommons.org/ns#" xmlns:rdf="http://www.w3.org/1999/02/22-rdf-syntax-ns#">
   <cc:Work>
    <dc:type rdf:resource="http://purl.org/dc/dcmitype/StillImage"/>
    <dc:date>2024-12-19T17:10:14.961174</dc:date>
    <dc:format>image/svg+xml</dc:format>
    <dc:creator>
     <cc:Agent>
      <dc:title>Matplotlib v3.8.0, https://matplotlib.org/</dc:title>
     </cc:Agent>
    </dc:creator>
   </cc:Work>
  </rdf:RDF>
 </metadata>
 <defs>
  <style type="text/css">*{stroke-linejoin: round; stroke-linecap: butt}</style>
 </defs>
 <g id="figure_1">
  <g id="patch_1">
   <path d="M 0 239.63175 
L 571.940564 239.63175 
L 571.940564 0 
L 0 0 
z
" style="fill: #ffffff"/>
  </g>
  <g id="axes_1">
   <g id="patch_2">
    <path d="M 50.165625 202.0755 
L 197.871507 202.0755 
L 197.871507 35.7555 
L 50.165625 35.7555 
z
" style="fill: #ffffff"/>
   </g>
   <g id="matplotlib.axis_1">
    <g id="xtick_1">
     <g id="line2d_1">
      <defs>
       <path id="mc520ad0c1e" d="M 0 0 
L 0 3.5 
" style="stroke: #000000; stroke-width: 0.8"/>
      </defs>
      <g>
       <use xlink:href="#mc520ad0c1e" x="56.879529" y="202.0755" style="stroke: #000000; stroke-width: 0.8"/>
      </g>
     </g>
     <g id="text_1">
      <!-- 0 -->
      <g transform="translate(53.698279 216.673938) scale(0.1 -0.1)">
       <defs>
        <path id="DejaVuSans-30" d="M 2034 4250 
Q 1547 4250 1301 3770 
Q 1056 3291 1056 2328 
Q 1056 1369 1301 889 
Q 1547 409 2034 409 
Q 2525 409 2770 889 
Q 3016 1369 3016 2328 
Q 3016 3291 2770 3770 
Q 2525 4250 2034 4250 
z
M 2034 4750 
Q 2819 4750 3233 4129 
Q 3647 3509 3647 2328 
Q 3647 1150 3233 529 
Q 2819 -91 2034 -91 
Q 1250 -91 836 529 
Q 422 1150 422 2328 
Q 422 3509 836 4129 
Q 1250 4750 2034 4750 
z
" transform="scale(0.015625)"/>
       </defs>
       <use xlink:href="#DejaVuSans-30"/>
      </g>
     </g>
    </g>
    <g id="xtick_2">
     <g id="line2d_2">
      <g>
       <use xlink:href="#mc520ad0c1e" x="124.019238" y="202.0755" style="stroke: #000000; stroke-width: 0.8"/>
      </g>
     </g>
     <g id="text_2">
      <!-- 50000 -->
      <g transform="translate(108.112988 216.673938) scale(0.1 -0.1)">
       <defs>
        <path id="DejaVuSans-35" d="M 691 4666 
L 3169 4666 
L 3169 4134 
L 1269 4134 
L 1269 2991 
Q 1406 3038 1543 3061 
Q 1681 3084 1819 3084 
Q 2600 3084 3056 2656 
Q 3513 2228 3513 1497 
Q 3513 744 3044 326 
Q 2575 -91 1722 -91 
Q 1428 -91 1123 -41 
Q 819 9 494 109 
L 494 744 
Q 775 591 1075 516 
Q 1375 441 1709 441 
Q 2250 441 2565 725 
Q 2881 1009 2881 1497 
Q 2881 1984 2565 2268 
Q 2250 2553 1709 2553 
Q 1456 2553 1204 2497 
Q 953 2441 691 2322 
L 691 4666 
z
" transform="scale(0.015625)"/>
       </defs>
       <use xlink:href="#DejaVuSans-35"/>
       <use xlink:href="#DejaVuSans-30" x="63.623047"/>
       <use xlink:href="#DejaVuSans-30" x="127.246094"/>
       <use xlink:href="#DejaVuSans-30" x="190.869141"/>
       <use xlink:href="#DejaVuSans-30" x="254.492188"/>
      </g>
     </g>
    </g>
    <g id="xtick_3">
     <g id="line2d_3">
      <g>
       <use xlink:href="#mc520ad0c1e" x="191.158946" y="202.0755" style="stroke: #000000; stroke-width: 0.8"/>
      </g>
     </g>
     <g id="text_3">
      <!-- 100000 -->
      <g transform="translate(172.071446 216.673938) scale(0.1 -0.1)">
       <defs>
        <path id="DejaVuSans-31" d="M 794 531 
L 1825 531 
L 1825 4091 
L 703 3866 
L 703 4441 
L 1819 4666 
L 2450 4666 
L 2450 531 
L 3481 531 
L 3481 0 
L 794 0 
L 794 531 
z
" transform="scale(0.015625)"/>
       </defs>
       <use xlink:href="#DejaVuSans-31"/>
       <use xlink:href="#DejaVuSans-30" x="63.623047"/>
       <use xlink:href="#DejaVuSans-30" x="127.246094"/>
       <use xlink:href="#DejaVuSans-30" x="190.869141"/>
       <use xlink:href="#DejaVuSans-30" x="254.492188"/>
       <use xlink:href="#DejaVuSans-30" x="318.115234"/>
      </g>
     </g>
    </g>
    <g id="text_4">
     <!-- Time step -->
     <g transform="translate(99.380285 230.352063) scale(0.1 -0.1)">
      <defs>
       <path id="DejaVuSans-54" d="M -19 4666 
L 3928 4666 
L 3928 4134 
L 2272 4134 
L 2272 0 
L 1638 0 
L 1638 4134 
L -19 4134 
L -19 4666 
z
" transform="scale(0.015625)"/>
       <path id="DejaVuSans-69" d="M 603 3500 
L 1178 3500 
L 1178 0 
L 603 0 
L 603 3500 
z
M 603 4863 
L 1178 4863 
L 1178 4134 
L 603 4134 
L 603 4863 
z
" transform="scale(0.015625)"/>
       <path id="DejaVuSans-6d" d="M 3328 2828 
Q 3544 3216 3844 3400 
Q 4144 3584 4550 3584 
Q 5097 3584 5394 3201 
Q 5691 2819 5691 2113 
L 5691 0 
L 5113 0 
L 5113 2094 
Q 5113 2597 4934 2840 
Q 4756 3084 4391 3084 
Q 3944 3084 3684 2787 
Q 3425 2491 3425 1978 
L 3425 0 
L 2847 0 
L 2847 2094 
Q 2847 2600 2669 2842 
Q 2491 3084 2119 3084 
Q 1678 3084 1418 2786 
Q 1159 2488 1159 1978 
L 1159 0 
L 581 0 
L 581 3500 
L 1159 3500 
L 1159 2956 
Q 1356 3278 1631 3431 
Q 1906 3584 2284 3584 
Q 2666 3584 2933 3390 
Q 3200 3197 3328 2828 
z
" transform="scale(0.015625)"/>
       <path id="DejaVuSans-65" d="M 3597 1894 
L 3597 1613 
L 953 1613 
Q 991 1019 1311 708 
Q 1631 397 2203 397 
Q 2534 397 2845 478 
Q 3156 559 3463 722 
L 3463 178 
Q 3153 47 2828 -22 
Q 2503 -91 2169 -91 
Q 1331 -91 842 396 
Q 353 884 353 1716 
Q 353 2575 817 3079 
Q 1281 3584 2069 3584 
Q 2775 3584 3186 3129 
Q 3597 2675 3597 1894 
z
M 3022 2063 
Q 3016 2534 2758 2815 
Q 2500 3097 2075 3097 
Q 1594 3097 1305 2825 
Q 1016 2553 972 2059 
L 3022 2063 
z
" transform="scale(0.015625)"/>
       <path id="DejaVuSans-20" transform="scale(0.015625)"/>
       <path id="DejaVuSans-73" d="M 2834 3397 
L 2834 2853 
Q 2591 2978 2328 3040 
Q 2066 3103 1784 3103 
Q 1356 3103 1142 2972 
Q 928 2841 928 2578 
Q 928 2378 1081 2264 
Q 1234 2150 1697 2047 
L 1894 2003 
Q 2506 1872 2764 1633 
Q 3022 1394 3022 966 
Q 3022 478 2636 193 
Q 2250 -91 1575 -91 
Q 1294 -91 989 -36 
Q 684 19 347 128 
L 347 722 
Q 666 556 975 473 
Q 1284 391 1588 391 
Q 1994 391 2212 530 
Q 2431 669 2431 922 
Q 2431 1156 2273 1281 
Q 2116 1406 1581 1522 
L 1381 1569 
Q 847 1681 609 1914 
Q 372 2147 372 2553 
Q 372 3047 722 3315 
Q 1072 3584 1716 3584 
Q 2034 3584 2315 3537 
Q 2597 3491 2834 3397 
z
" transform="scale(0.015625)"/>
       <path id="DejaVuSans-74" d="M 1172 4494 
L 1172 3500 
L 2356 3500 
L 2356 3053 
L 1172 3053 
L 1172 1153 
Q 1172 725 1289 603 
Q 1406 481 1766 481 
L 2356 481 
L 2356 0 
L 1766 0 
Q 1100 0 847 248 
Q 594 497 594 1153 
L 594 3053 
L 172 3053 
L 172 3500 
L 594 3500 
L 594 4494 
L 1172 4494 
z
" transform="scale(0.015625)"/>
       <path id="DejaVuSans-70" d="M 1159 525 
L 1159 -1331 
L 581 -1331 
L 581 3500 
L 1159 3500 
L 1159 2969 
Q 1341 3281 1617 3432 
Q 1894 3584 2278 3584 
Q 2916 3584 3314 3078 
Q 3713 2572 3713 1747 
Q 3713 922 3314 415 
Q 2916 -91 2278 -91 
Q 1894 -91 1617 61 
Q 1341 213 1159 525 
z
M 3116 1747 
Q 3116 2381 2855 2742 
Q 2594 3103 2138 3103 
Q 1681 3103 1420 2742 
Q 1159 2381 1159 1747 
Q 1159 1113 1420 752 
Q 1681 391 2138 391 
Q 2594 391 2855 752 
Q 3116 1113 3116 1747 
z
" transform="scale(0.015625)"/>
      </defs>
      <use xlink:href="#DejaVuSans-54"/>
      <use xlink:href="#DejaVuSans-69" x="57.958984"/>
      <use xlink:href="#DejaVuSans-6d" x="85.742188"/>
      <use xlink:href="#DejaVuSans-65" x="183.154297"/>
      <use xlink:href="#DejaVuSans-20" x="244.677734"/>
      <use xlink:href="#DejaVuSans-73" x="276.464844"/>
      <use xlink:href="#DejaVuSans-74" x="328.564453"/>
      <use xlink:href="#DejaVuSans-65" x="367.773438"/>
      <use xlink:href="#DejaVuSans-70" x="429.296875"/>
     </g>
    </g>
   </g>
   <g id="matplotlib.axis_2">
    <g id="ytick_1">
     <g id="line2d_4">
      <defs>
       <path id="mae94611c33" d="M 0 0 
L -3.5 0 
" style="stroke: #000000; stroke-width: 0.8"/>
      </defs>
      <g>
       <use xlink:href="#mae94611c33" x="50.165625" y="194.5155" style="stroke: #000000; stroke-width: 0.8"/>
      </g>
     </g>
     <g id="text_5">
      <!-- 0.00 -->
      <g transform="translate(20.9 198.314719) scale(0.1 -0.1)">
       <defs>
        <path id="DejaVuSans-2e" d="M 684 794 
L 1344 794 
L 1344 0 
L 684 0 
L 684 794 
z
" transform="scale(0.015625)"/>
       </defs>
       <use xlink:href="#DejaVuSans-30"/>
       <use xlink:href="#DejaVuSans-2e" x="63.623047"/>
       <use xlink:href="#DejaVuSans-30" x="95.410156"/>
       <use xlink:href="#DejaVuSans-30" x="159.033203"/>
      </g>
     </g>
    </g>
    <g id="ytick_2">
     <g id="line2d_5">
      <g>
       <use xlink:href="#mae94611c33" x="50.165625" y="156.7155" style="stroke: #000000; stroke-width: 0.8"/>
      </g>
     </g>
     <g id="text_6">
      <!-- 0.25 -->
      <g transform="translate(20.9 160.514719) scale(0.1 -0.1)">
       <defs>
        <path id="DejaVuSans-32" d="M 1228 531 
L 3431 531 
L 3431 0 
L 469 0 
L 469 531 
Q 828 903 1448 1529 
Q 2069 2156 2228 2338 
Q 2531 2678 2651 2914 
Q 2772 3150 2772 3378 
Q 2772 3750 2511 3984 
Q 2250 4219 1831 4219 
Q 1534 4219 1204 4116 
Q 875 4013 500 3803 
L 500 4441 
Q 881 4594 1212 4672 
Q 1544 4750 1819 4750 
Q 2544 4750 2975 4387 
Q 3406 4025 3406 3419 
Q 3406 3131 3298 2873 
Q 3191 2616 2906 2266 
Q 2828 2175 2409 1742 
Q 1991 1309 1228 531 
z
" transform="scale(0.015625)"/>
       </defs>
       <use xlink:href="#DejaVuSans-30"/>
       <use xlink:href="#DejaVuSans-2e" x="63.623047"/>
       <use xlink:href="#DejaVuSans-32" x="95.410156"/>
       <use xlink:href="#DejaVuSans-35" x="159.033203"/>
      </g>
     </g>
    </g>
    <g id="ytick_3">
     <g id="line2d_6">
      <g>
       <use xlink:href="#mae94611c33" x="50.165625" y="118.9155" style="stroke: #000000; stroke-width: 0.8"/>
      </g>
     </g>
     <g id="text_7">
      <!-- 0.50 -->
      <g transform="translate(20.9 122.714719) scale(0.1 -0.1)">
       <use xlink:href="#DejaVuSans-30"/>
       <use xlink:href="#DejaVuSans-2e" x="63.623047"/>
       <use xlink:href="#DejaVuSans-35" x="95.410156"/>
       <use xlink:href="#DejaVuSans-30" x="159.033203"/>
      </g>
     </g>
    </g>
    <g id="ytick_4">
     <g id="line2d_7">
      <g>
       <use xlink:href="#mae94611c33" x="50.165625" y="81.1155" style="stroke: #000000; stroke-width: 0.8"/>
      </g>
     </g>
     <g id="text_8">
      <!-- 0.75 -->
      <g transform="translate(20.9 84.914719) scale(0.1 -0.1)">
       <defs>
        <path id="DejaVuSans-37" d="M 525 4666 
L 3525 4666 
L 3525 4397 
L 1831 0 
L 1172 0 
L 2766 4134 
L 525 4134 
L 525 4666 
z
" transform="scale(0.015625)"/>
       </defs>
       <use xlink:href="#DejaVuSans-30"/>
       <use xlink:href="#DejaVuSans-2e" x="63.623047"/>
       <use xlink:href="#DejaVuSans-37" x="95.410156"/>
       <use xlink:href="#DejaVuSans-35" x="159.033203"/>
      </g>
     </g>
    </g>
    <g id="ytick_5">
     <g id="line2d_8">
      <g>
       <use xlink:href="#mae94611c33" x="50.165625" y="43.3155" style="stroke: #000000; stroke-width: 0.8"/>
      </g>
     </g>
     <g id="text_9">
      <!-- 1.00 -->
      <g transform="translate(20.9 47.114719) scale(0.1 -0.1)">
       <use xlink:href="#DejaVuSans-31"/>
       <use xlink:href="#DejaVuSans-2e" x="63.623047"/>
       <use xlink:href="#DejaVuSans-30" x="95.410156"/>
       <use xlink:href="#DejaVuSans-30" x="159.033203"/>
      </g>
     </g>
    </g>
    <g id="ytick_6">
     <g id="line2d_9">
      <defs>
       <path id="m498ca21ea9" d="M 0 0 
L -2 0 
" style="stroke: #000000; stroke-width: 0.6"/>
      </defs>
      <g>
       <use xlink:href="#m498ca21ea9" x="50.165625" y="175.6155" style="stroke: #000000; stroke-width: 0.6"/>
      </g>
     </g>
    </g>
    <g id="ytick_7">
     <g id="line2d_10">
      <g>
       <use xlink:href="#m498ca21ea9" x="50.165625" y="137.8155" style="stroke: #000000; stroke-width: 0.6"/>
      </g>
     </g>
    </g>
    <g id="ytick_8">
     <g id="line2d_11">
      <g>
       <use xlink:href="#m498ca21ea9" x="50.165625" y="100.0155" style="stroke: #000000; stroke-width: 0.6"/>
      </g>
     </g>
    </g>
    <g id="ytick_9">
     <g id="line2d_12">
      <g>
       <use xlink:href="#m498ca21ea9" x="50.165625" y="62.2155" style="stroke: #000000; stroke-width: 0.6"/>
      </g>
     </g>
    </g>
    <g id="text_10">
     <!-- $p_t(X=1)$ -->
     <g transform="translate(14.8 140.2655) rotate(-90) scale(0.1 -0.1)">
      <defs>
       <path id="DejaVuSans-Oblique-70" d="M 3175 2156 
Q 3175 2616 2975 2859 
Q 2775 3103 2400 3103 
Q 2144 3103 1911 2972 
Q 1678 2841 1497 2591 
Q 1319 2344 1212 1994 
Q 1106 1644 1106 1300 
Q 1106 863 1306 627 
Q 1506 391 1875 391 
Q 2147 391 2380 519 
Q 2613 647 2778 891 
Q 2956 1147 3065 1494 
Q 3175 1841 3175 2156 
z
M 1394 2969 
Q 1625 3272 1939 3428 
Q 2253 3584 2638 3584 
Q 3175 3584 3472 3232 
Q 3769 2881 3769 2247 
Q 3769 1728 3584 1258 
Q 3400 788 3053 416 
Q 2822 169 2531 39 
Q 2241 -91 1919 -91 
Q 1547 -91 1294 64 
Q 1041 219 916 525 
L 556 -1331 
L -19 -1331 
L 922 3500 
L 1497 3500 
L 1394 2969 
z
" transform="scale(0.015625)"/>
       <path id="DejaVuSans-Oblique-74" d="M 2706 3500 
L 2619 3053 
L 1472 3053 
L 1100 1153 
Q 1081 1047 1072 975 
Q 1063 903 1063 863 
Q 1063 663 1183 572 
Q 1303 481 1569 481 
L 2150 481 
L 2053 0 
L 1503 0 
Q 991 0 739 200 
Q 488 400 488 806 
Q 488 878 497 964 
Q 506 1050 525 1153 
L 897 3053 
L 409 3053 
L 500 3500 
L 978 3500 
L 1172 4494 
L 1747 4494 
L 1556 3500 
L 2706 3500 
z
" transform="scale(0.015625)"/>
       <path id="DejaVuSans-28" d="M 1984 4856 
Q 1566 4138 1362 3434 
Q 1159 2731 1159 2009 
Q 1159 1288 1364 580 
Q 1569 -128 1984 -844 
L 1484 -844 
Q 1016 -109 783 600 
Q 550 1309 550 2009 
Q 550 2706 781 3412 
Q 1013 4119 1484 4856 
L 1984 4856 
z
" transform="scale(0.015625)"/>
       <path id="DejaVuSans-Oblique-58" d="M 878 4666 
L 1516 4666 
L 2316 2981 
L 3763 4666 
L 4500 4666 
L 2578 2438 
L 3738 0 
L 3103 0 
L 2163 1966 
L 459 0 
L -275 0 
L 1906 2509 
L 878 4666 
z
" transform="scale(0.015625)"/>
       <path id="DejaVuSans-3d" d="M 678 2906 
L 4684 2906 
L 4684 2381 
L 678 2381 
L 678 2906 
z
M 678 1631 
L 4684 1631 
L 4684 1100 
L 678 1100 
L 678 1631 
z
" transform="scale(0.015625)"/>
       <path id="DejaVuSans-29" d="M 513 4856 
L 1013 4856 
Q 1481 4119 1714 3412 
Q 1947 2706 1947 2009 
Q 1947 1309 1714 600 
Q 1481 -109 1013 -844 
L 513 -844 
Q 928 -128 1133 580 
Q 1338 1288 1338 2009 
Q 1338 2731 1133 3434 
Q 928 4138 513 4856 
z
" transform="scale(0.015625)"/>
      </defs>
      <use xlink:href="#DejaVuSans-Oblique-70" transform="translate(0 0.125)"/>
      <use xlink:href="#DejaVuSans-Oblique-74" transform="translate(63.476562 -16.28125) scale(0.7)"/>
      <use xlink:href="#DejaVuSans-28" transform="translate(93.657227 0.125)"/>
      <use xlink:href="#DejaVuSans-Oblique-58" transform="translate(132.670898 0.125)"/>
      <use xlink:href="#DejaVuSans-3d" transform="translate(220.65918 0.125)"/>
      <use xlink:href="#DejaVuSans-31" transform="translate(323.930664 0.125)"/>
      <use xlink:href="#DejaVuSans-29" transform="translate(387.553711 0.125)"/>
     </g>
    </g>
   </g>
   <g id="line2d_13">
    <path d="M 50.165625 118.9155 
L 197.871507 118.9155 
" clip-path="url(#p4c84aa63a5)" style="fill: none; stroke: #d9d9d9; stroke-width: 1.5; stroke-linecap: square"/>
   </g>
   <g id="line2d_14">
    <path d="M 56.879529 194.50794 
L 58.658731 185.126701 
L 60.441962 176.892305 
L 62.230564 169.66168 
L 64.027222 163.306186 
L 65.831938 157.723365 
L 67.648738 152.81215 
L 69.480309 148.489907 
L 71.332022 144.680126 
L 73.209249 141.318513 
L 75.118702 138.348805 
L 77.069782 135.720578 
L 79.073231 133.391233 
L 81.142477 131.323804 
L 83.294976 129.485903 
L 85.552213 127.850262 
L 87.942386 126.393315 
L 90.497724 125.097434 
L 93.259851 123.94802 
L 96.285167 122.932798 
L 99.64618 122.043197 
L 103.443602 121.27272 
L 107.823797 120.616585 
L 113.009668 120.071594 
L 119.37317 119.635232 
L 127.60047 119.305501 
L 139.191469 119.079999 
L 158.502192 118.954546 
L 191.157604 118.918931 
L 191.157604 118.918931 
" clip-path="url(#p4c84aa63a5)" style="fill: none; stroke: #bebada; stroke-width: 2; stroke-linecap: square"/>
   </g>
   <g id="line2d_15">
    <path d="M 56.879529 194.51172 
L 59.436209 187.646745 
L 62.00766 181.370825 
L 64.59791 175.628252 
L 67.209644 170.372508 
L 69.846892 165.559496 
L 72.515024 161.14807 
L 75.219412 157.102273 
L 77.966768 153.388853 
L 80.765152 149.977464 
L 83.62396 146.840752 
L 86.553937 143.954351 
L 89.567167 141.296801 
L 92.679764 138.84743 
L 95.907841 136.589947 
L 99.271541 134.509197 
L 102.79369 132.592472 
L 106.50383 130.827664 
L 110.434189 129.205849 
L 114.62505 127.719028 
L 119.124753 126.360914 
L 123.993724 125.126325 
L 129.309847 124.010903 
L 135.173829 123.011387 
L 141.721293 122.125199 
L 149.138888 121.350558 
L 157.700544 120.685824 
L 167.823869 120.129843 
L 180.200403 119.681435 
L 191.157604 119.424825 
L 191.157604 119.424825 
" clip-path="url(#p4c84aa63a5)" style="fill: none; stroke: #fb8072; stroke-width: 2; stroke-linecap: square"/>
   </g>
   <g id="patch_3">
    <path d="M 50.165625 202.0755 
L 50.165625 35.7555 
" style="fill: none; stroke: #000000; stroke-width: 0.8; stroke-linejoin: miter; stroke-linecap: square"/>
   </g>
   <g id="patch_4">
    <path d="M 197.871507 202.0755 
L 197.871507 35.7555 
" style="fill: none; stroke: #000000; stroke-width: 0.8; stroke-linejoin: miter; stroke-linecap: square"/>
   </g>
   <g id="patch_5">
    <path d="M 50.165625 202.0755 
L 197.871507 202.0755 
" style="fill: none; stroke: #000000; stroke-width: 0.8; stroke-linejoin: miter; stroke-linecap: square"/>
   </g>
   <g id="patch_6">
    <path d="M 50.165625 35.7555 
L 197.871507 35.7555 
" style="fill: none; stroke: #000000; stroke-width: 0.8; stroke-linejoin: miter; stroke-linecap: square"/>
   </g>
   <g id="text_11">
    <!-- Demethylated at -->
    <g transform="translate(73.331691 16.318125) scale(0.12 -0.12)">
     <defs>
      <path id="DejaVuSans-44" d="M 1259 4147 
L 1259 519 
L 2022 519 
Q 2988 519 3436 956 
Q 3884 1394 3884 2338 
Q 3884 3275 3436 3711 
Q 2988 4147 2022 4147 
L 1259 4147 
z
M 628 4666 
L 1925 4666 
Q 3281 4666 3915 4102 
Q 4550 3538 4550 2338 
Q 4550 1131 3912 565 
Q 3275 0 1925 0 
L 628 0 
L 628 4666 
z
" transform="scale(0.015625)"/>
      <path id="DejaVuSans-68" d="M 3513 2113 
L 3513 0 
L 2938 0 
L 2938 2094 
Q 2938 2591 2744 2837 
Q 2550 3084 2163 3084 
Q 1697 3084 1428 2787 
Q 1159 2491 1159 1978 
L 1159 0 
L 581 0 
L 581 4863 
L 1159 4863 
L 1159 2956 
Q 1366 3272 1645 3428 
Q 1925 3584 2291 3584 
Q 2894 3584 3203 3211 
Q 3513 2838 3513 2113 
z
" transform="scale(0.015625)"/>
      <path id="DejaVuSans-79" d="M 2059 -325 
Q 1816 -950 1584 -1140 
Q 1353 -1331 966 -1331 
L 506 -1331 
L 506 -850 
L 844 -850 
Q 1081 -850 1212 -737 
Q 1344 -625 1503 -206 
L 1606 56 
L 191 3500 
L 800 3500 
L 1894 763 
L 2988 3500 
L 3597 3500 
L 2059 -325 
z
" transform="scale(0.015625)"/>
      <path id="DejaVuSans-6c" d="M 603 4863 
L 1178 4863 
L 1178 0 
L 603 0 
L 603 4863 
z
" transform="scale(0.015625)"/>
      <path id="DejaVuSans-61" d="M 2194 1759 
Q 1497 1759 1228 1600 
Q 959 1441 959 1056 
Q 959 750 1161 570 
Q 1363 391 1709 391 
Q 2188 391 2477 730 
Q 2766 1069 2766 1631 
L 2766 1759 
L 2194 1759 
z
M 3341 1997 
L 3341 0 
L 2766 0 
L 2766 531 
Q 2569 213 2275 61 
Q 1981 -91 1556 -91 
Q 1019 -91 701 211 
Q 384 513 384 1019 
Q 384 1609 779 1909 
Q 1175 2209 1959 2209 
L 2766 2209 
L 2766 2266 
Q 2766 2663 2505 2880 
Q 2244 3097 1772 3097 
Q 1472 3097 1187 3025 
Q 903 2953 641 2809 
L 641 3341 
Q 956 3463 1253 3523 
Q 1550 3584 1831 3584 
Q 2591 3584 2966 3190 
Q 3341 2797 3341 1997 
z
" transform="scale(0.015625)"/>
      <path id="DejaVuSans-64" d="M 2906 2969 
L 2906 4863 
L 3481 4863 
L 3481 0 
L 2906 0 
L 2906 525 
Q 2725 213 2448 61 
Q 2172 -91 1784 -91 
Q 1150 -91 751 415 
Q 353 922 353 1747 
Q 353 2572 751 3078 
Q 1150 3584 1784 3584 
Q 2172 3584 2448 3432 
Q 2725 3281 2906 2969 
z
M 947 1747 
Q 947 1113 1208 752 
Q 1469 391 1925 391 
Q 2381 391 2643 752 
Q 2906 1113 2906 1747 
Q 2906 2381 2643 2742 
Q 2381 3103 1925 3103 
Q 1469 3103 1208 2742 
Q 947 2381 947 1747 
z
" transform="scale(0.015625)"/>
     </defs>
     <use xlink:href="#DejaVuSans-44"/>
     <use xlink:href="#DejaVuSans-65" x="77.001953"/>
     <use xlink:href="#DejaVuSans-6d" x="138.525391"/>
     <use xlink:href="#DejaVuSans-65" x="235.9375"/>
     <use xlink:href="#DejaVuSans-74" x="297.460938"/>
     <use xlink:href="#DejaVuSans-68" x="336.669922"/>
     <use xlink:href="#DejaVuSans-79" x="400.048828"/>
     <use xlink:href="#DejaVuSans-6c" x="459.228516"/>
     <use xlink:href="#DejaVuSans-61" x="487.011719"/>
     <use xlink:href="#DejaVuSans-74" x="548.291016"/>
     <use xlink:href="#DejaVuSans-65" x="587.5"/>
     <use xlink:href="#DejaVuSans-64" x="649.023438"/>
     <use xlink:href="#DejaVuSans-20" x="712.5"/>
     <use xlink:href="#DejaVuSans-61" x="744.287109"/>
     <use xlink:href="#DejaVuSans-74" x="805.566406"/>
    </g>
    <!-- $t=0$ -->
    <g transform="translate(110.458566 29.7555) scale(0.12 -0.12)">
     <use xlink:href="#DejaVuSans-Oblique-74" transform="translate(0 0.78125)"/>
     <use xlink:href="#DejaVuSans-3d" transform="translate(58.691406 0.78125)"/>
     <use xlink:href="#DejaVuSans-30" transform="translate(161.962891 0.78125)"/>
    </g>
   </g>
   <g id="legend_1">
    <g id="line2d_16">
     <path d="M 109.321507 45.9055 
L 116.321507 45.9055 
L 123.321507 45.9055 
" style="fill: none; stroke: #bebada; stroke-width: 2; stroke-linecap: square"/>
    </g>
    <g id="text_12">
     <!-- $p=q=0.5\cdot10^{-4}$ -->
     <g transform="translate(128.921507 48.3555) scale(0.07 -0.07)">
      <defs>
       <path id="DejaVuSans-Oblique-71" d="M 2669 525 
Q 2438 222 2123 65 
Q 1809 -91 1428 -91 
Q 897 -91 595 267 
Q 294 625 294 1253 
Q 294 1759 480 2231 
Q 666 2703 1013 3078 
Q 1238 3322 1530 3453 
Q 1822 3584 2144 3584 
Q 2531 3584 2781 3431 
Q 3031 3278 3144 2969 
L 3244 3494 
L 3822 3494 
L 2888 -1319 
L 2309 -1319 
L 2669 525 
z
M 891 1338 
Q 891 875 1084 633 
Q 1278 391 1644 391 
Q 2188 391 2572 911 
Q 2956 1431 2956 2175 
Q 2956 2625 2757 2864 
Q 2559 3103 2188 3103 
Q 1916 3103 1684 2976 
Q 1453 2850 1281 2606 
Q 1100 2350 995 2006 
Q 891 1663 891 1338 
z
" transform="scale(0.015625)"/>
       <path id="DejaVuSans-22c5" d="M 684 2619 
L 1344 2619 
L 1344 1825 
L 684 1825 
L 684 2619 
z
" transform="scale(0.015625)"/>
       <path id="DejaVuSans-2212" d="M 678 2272 
L 4684 2272 
L 4684 1741 
L 678 1741 
L 678 2272 
z
" transform="scale(0.015625)"/>
       <path id="DejaVuSans-34" d="M 2419 4116 
L 825 1625 
L 2419 1625 
L 2419 4116 
z
M 2253 4666 
L 3047 4666 
L 3047 1625 
L 3713 1625 
L 3713 1100 
L 3047 1100 
L 3047 0 
L 2419 0 
L 2419 1100 
L 313 1100 
L 313 1709 
L 2253 4666 
z
" transform="scale(0.015625)"/>
      </defs>
      <use xlink:href="#DejaVuSans-Oblique-70" transform="translate(0 0.684375)"/>
      <use xlink:href="#DejaVuSans-3d" transform="translate(82.958984 0.684375)"/>
      <use xlink:href="#DejaVuSans-Oblique-71" transform="translate(186.230469 0.684375)"/>
      <use xlink:href="#DejaVuSans-3d" transform="translate(269.189453 0.684375)"/>
      <use xlink:href="#DejaVuSans-30" transform="translate(372.460938 0.684375)"/>
      <use xlink:href="#DejaVuSans-2e" transform="translate(436.083984 0.684375)"/>
      <use xlink:href="#DejaVuSans-35" transform="translate(467.871094 0.684375)"/>
      <use xlink:href="#DejaVuSans-22c5" transform="translate(550.976562 0.684375)"/>
      <use xlink:href="#DejaVuSans-31" transform="translate(602.246094 0.684375)"/>
      <use xlink:href="#DejaVuSans-30" transform="translate(665.869141 0.684375)"/>
      <use xlink:href="#DejaVuSans-2212" transform="translate(730.449219 38.965625) scale(0.7)"/>
      <use xlink:href="#DejaVuSans-34" transform="translate(789.101562 38.965625) scale(0.7)"/>
     </g>
    </g>
    <g id="line2d_17">
     <path d="M 109.321507 57.1755 
L 116.321507 57.1755 
L 123.321507 57.1755 
" style="fill: none; stroke: #fb8072; stroke-width: 2; stroke-linecap: square"/>
    </g>
    <g id="text_13">
     <!-- $p=q=0.25\cdot10^{-4}$ -->
     <g transform="translate(128.921507 59.6255) scale(0.07 -0.07)">
      <use xlink:href="#DejaVuSans-Oblique-70" transform="translate(0 0.684375)"/>
      <use xlink:href="#DejaVuSans-3d" transform="translate(82.958984 0.684375)"/>
      <use xlink:href="#DejaVuSans-Oblique-71" transform="translate(186.230469 0.684375)"/>
      <use xlink:href="#DejaVuSans-3d" transform="translate(269.189453 0.684375)"/>
      <use xlink:href="#DejaVuSans-30" transform="translate(372.460938 0.684375)"/>
      <use xlink:href="#DejaVuSans-2e" transform="translate(436.083984 0.684375)"/>
      <use xlink:href="#DejaVuSans-32" transform="translate(462.371094 0.684375)"/>
      <use xlink:href="#DejaVuSans-35" transform="translate(525.994141 0.684375)"/>
      <use xlink:href="#DejaVuSans-22c5" transform="translate(609.099609 0.684375)"/>
      <use xlink:href="#DejaVuSans-31" transform="translate(660.369141 0.684375)"/>
      <use xlink:href="#DejaVuSans-30" transform="translate(723.992188 0.684375)"/>
      <use xlink:href="#DejaVuSans-2212" transform="translate(788.572266 38.965625) scale(0.7)"/>
      <use xlink:href="#DejaVuSans-34" transform="translate(847.224609 38.965625) scale(0.7)"/>
     </g>
    </g>
   </g>
  </g>
  <g id="axes_2">
   <g id="patch_7">
    <path d="M 227.412684 202.0755 
L 375.118566 202.0755 
L 375.118566 35.7555 
L 227.412684 35.7555 
z
" style="fill: #ffffff"/>
   </g>
   <g id="matplotlib.axis_3">
    <g id="xtick_4">
     <g id="line2d_18">
      <g>
       <use xlink:href="#mc520ad0c1e" x="234.126588" y="202.0755" style="stroke: #000000; stroke-width: 0.8"/>
      </g>
     </g>
     <g id="text_14">
      <!-- 0 -->
      <g transform="translate(230.945338 216.673938) scale(0.1 -0.1)">
       <use xlink:href="#DejaVuSans-30"/>
      </g>
     </g>
    </g>
    <g id="xtick_5">
     <g id="line2d_19">
      <g>
       <use xlink:href="#mc520ad0c1e" x="301.266296" y="202.0755" style="stroke: #000000; stroke-width: 0.8"/>
      </g>
     </g>
     <g id="text_15">
      <!-- 50000 -->
      <g transform="translate(285.360046 216.673938) scale(0.1 -0.1)">
       <use xlink:href="#DejaVuSans-35"/>
       <use xlink:href="#DejaVuSans-30" x="63.623047"/>
       <use xlink:href="#DejaVuSans-30" x="127.246094"/>
       <use xlink:href="#DejaVuSans-30" x="190.869141"/>
       <use xlink:href="#DejaVuSans-30" x="254.492188"/>
      </g>
     </g>
    </g>
    <g id="xtick_6">
     <g id="line2d_20">
      <g>
       <use xlink:href="#mc520ad0c1e" x="368.406005" y="202.0755" style="stroke: #000000; stroke-width: 0.8"/>
      </g>
     </g>
     <g id="text_16">
      <!-- 100000 -->
      <g transform="translate(349.318505 216.673938) scale(0.1 -0.1)">
       <use xlink:href="#DejaVuSans-31"/>
       <use xlink:href="#DejaVuSans-30" x="63.623047"/>
       <use xlink:href="#DejaVuSans-30" x="127.246094"/>
       <use xlink:href="#DejaVuSans-30" x="190.869141"/>
       <use xlink:href="#DejaVuSans-30" x="254.492188"/>
       <use xlink:href="#DejaVuSans-30" x="318.115234"/>
      </g>
     </g>
    </g>
    <g id="text_17">
     <!-- Time step -->
     <g transform="translate(276.627344 230.352063) scale(0.1 -0.1)">
      <use xlink:href="#DejaVuSans-54"/>
      <use xlink:href="#DejaVuSans-69" x="57.958984"/>
      <use xlink:href="#DejaVuSans-6d" x="85.742188"/>
      <use xlink:href="#DejaVuSans-65" x="183.154297"/>
      <use xlink:href="#DejaVuSans-20" x="244.677734"/>
      <use xlink:href="#DejaVuSans-73" x="276.464844"/>
      <use xlink:href="#DejaVuSans-74" x="328.564453"/>
      <use xlink:href="#DejaVuSans-65" x="367.773438"/>
      <use xlink:href="#DejaVuSans-70" x="429.296875"/>
     </g>
    </g>
   </g>
   <g id="matplotlib.axis_4">
    <g id="ytick_10">
     <g id="line2d_21">
      <g>
       <use xlink:href="#mae94611c33" x="227.412684" y="194.5155" style="stroke: #000000; stroke-width: 0.8"/>
      </g>
     </g>
    </g>
    <g id="ytick_11">
     <g id="line2d_22">
      <g>
       <use xlink:href="#mae94611c33" x="227.412684" y="156.7155" style="stroke: #000000; stroke-width: 0.8"/>
      </g>
     </g>
    </g>
    <g id="ytick_12">
     <g id="line2d_23">
      <g>
       <use xlink:href="#mae94611c33" x="227.412684" y="118.9155" style="stroke: #000000; stroke-width: 0.8"/>
      </g>
     </g>
    </g>
    <g id="ytick_13">
     <g id="line2d_24">
      <g>
       <use xlink:href="#mae94611c33" x="227.412684" y="81.1155" style="stroke: #000000; stroke-width: 0.8"/>
      </g>
     </g>
    </g>
    <g id="ytick_14">
     <g id="line2d_25">
      <g>
       <use xlink:href="#mae94611c33" x="227.412684" y="43.3155" style="stroke: #000000; stroke-width: 0.8"/>
      </g>
     </g>
    </g>
    <g id="ytick_15">
     <g id="line2d_26">
      <g>
       <use xlink:href="#m498ca21ea9" x="227.412684" y="175.6155" style="stroke: #000000; stroke-width: 0.6"/>
      </g>
     </g>
    </g>
    <g id="ytick_16">
     <g id="line2d_27">
      <g>
       <use xlink:href="#m498ca21ea9" x="227.412684" y="137.8155" style="stroke: #000000; stroke-width: 0.6"/>
      </g>
     </g>
    </g>
    <g id="ytick_17">
     <g id="line2d_28">
      <g>
       <use xlink:href="#m498ca21ea9" x="227.412684" y="100.0155" style="stroke: #000000; stroke-width: 0.6"/>
      </g>
     </g>
    </g>
    <g id="ytick_18">
     <g id="line2d_29">
      <g>
       <use xlink:href="#m498ca21ea9" x="227.412684" y="62.2155" style="stroke: #000000; stroke-width: 0.6"/>
      </g>
     </g>
    </g>
   </g>
   <g id="line2d_30">
    <path d="M 227.412684 43.3155 
L 375.118566 43.3155 
" clip-path="url(#pb43ccd1970)" style="fill: none; stroke: #d9d9d9; stroke-width: 1.5; stroke-linecap: square"/>
   </g>
   <g id="line2d_31">
    <path d="M 227.412684 144.1155 
L 375.118566 144.1155 
" clip-path="url(#pb43ccd1970)" style="fill: none; stroke: #d9d9d9; stroke-width: 1.5; stroke-linecap: square"/>
   </g>
   <g id="line2d_32">
    <path d="M 227.412684 93.7155 
L 375.118566 93.7155 
" clip-path="url(#pb43ccd1970)" style="fill: none; stroke: #d9d9d9; stroke-width: 1.5; stroke-linecap: square"/>
   </g>
   <g id="line2d_33">
    <path d="M 234.126588 194.50794 
L 236.62687 181.066972 
L 239.131181 168.802078 
L 241.639521 157.612059 
L 244.154574 147.393865 
L 246.676342 138.065494 
L 249.206166 129.547335 
L 251.74539 121.767507 
L 254.296699 114.657462 
L 256.861436 108.159365 
L 259.443629 102.214841 
L 262.045964 96.775166 
L 264.672469 91.794224 
L 267.327174 87.231229 
L 270.01679 83.046036 
L 272.746691 79.205816 
L 275.523589 75.68009 
L 278.356885 72.439492 
L 281.25732 69.457928 
L 284.236981 66.712477 
L 287.307951 64.184274 
L 290.487688 61.854025 
L 293.79499 59.705935 
L 297.252685 57.725821 
L 300.884943 55.902837 
L 304.723991 54.226132 
L 308.807428 52.687101 
L 313.178224 51.279488 
L 317.894117 49.996886 
L 323.02359 48.835185 
L 328.657955 47.790541 
L 334.918061 46.860044 
L 341.966388 46.041821 
L 350.037924 45.334083 
L 359.483138 44.735542 
L 368.404662 44.33415 
L 368.404662 44.33415 
" clip-path="url(#pb43ccd1970)" style="fill: none; stroke: #bebada; stroke-width: 2; stroke-linecap: square"/>
   </g>
   <g id="line2d_34">
    <path d="M 234.126588 194.50794 
L 236.175691 183.60751 
L 238.228824 173.867895 
L 240.285984 165.167468 
L 242.349859 157.387578 
L 244.421791 150.429256 
L 246.504464 144.201064 
L 248.599223 138.626513 
L 250.708753 133.634549 
L 252.838424 129.157557 
L 254.992266 125.140214 
L 257.17565 121.532298 
L 259.395288 118.288798 
L 261.660582 115.368211 
L 263.982273 112.734735 
L 266.372447 110.357769 
L 268.845874 108.21031 
L 271.42001 106.269135 
L 274.119027 104.512352 
L 276.968436 102.923739 
L 280.000465 101.489169 
L 283.256741 100.196407 
L 286.78829 99.03619 
L 290.659565 98.001569 
L 294.959192 97.086505 
L 299.805336 96.287094 
L 305.368533 95.600239 
L 311.90794 95.023534 
L 319.842511 94.555237 
L 329.920181 94.193778 
L 343.685164 93.937203 
L 365.169871 93.782273 
L 368.404662 93.771235 
L 368.404662 93.771235 
" clip-path="url(#pb43ccd1970)" style="fill: none; stroke: #fb8072; stroke-width: 2; stroke-linecap: square"/>
   </g>
   <g id="line2d_35">
    <path d="M 234.126588 194.51172 
L 236.221346 188.947034 
L 238.332219 183.960916 
L 240.46189 179.492182 
L 242.615732 175.482249 
L 244.799116 171.880988 
L 247.020097 168.641632 
L 249.286734 165.72503 
L 251.608425 163.096805 
L 253.998599 160.72458 
L 256.473368 158.580318 
L 259.05019 156.641281 
L 261.750549 154.887588 
L 264.602644 153.301241 
L 267.638702 151.868431 
L 270.899006 150.577663 
L 274.434583 149.419609 
L 278.312573 148.386609 
L 282.618914 147.47348 
L 287.474457 146.675813 
L 293.051082 145.990564 
L 299.607946 145.415552 
L 307.568029 144.948924 
L 317.687326 144.58908 
L 331.528849 144.334089 
L 353.196176 144.180667 
L 368.404662 144.143368 
L 368.404662 144.143368 
" clip-path="url(#pb43ccd1970)" style="fill: none; stroke: #80b1d3; stroke-width: 2; stroke-linecap: square"/>
   </g>
   <g id="patch_8">
    <path d="M 227.412684 202.0755 
L 227.412684 35.7555 
" style="fill: none; stroke: #000000; stroke-width: 0.8; stroke-linejoin: miter; stroke-linecap: square"/>
   </g>
   <g id="patch_9">
    <path d="M 375.118566 202.0755 
L 375.118566 35.7555 
" style="fill: none; stroke: #000000; stroke-width: 0.8; stroke-linejoin: miter; stroke-linecap: square"/>
   </g>
   <g id="patch_10">
    <path d="M 227.412684 202.0755 
L 375.118566 202.0755 
" style="fill: none; stroke: #000000; stroke-width: 0.8; stroke-linejoin: miter; stroke-linecap: square"/>
   </g>
   <g id="patch_11">
    <path d="M 227.412684 35.7555 
L 375.118566 35.7555 
" style="fill: none; stroke: #000000; stroke-width: 0.8; stroke-linejoin: miter; stroke-linecap: square"/>
   </g>
   <g id="text_18">
    <!-- Demethylated at -->
    <g transform="translate(250.57875 16.318125) scale(0.12 -0.12)">
     <use xlink:href="#DejaVuSans-44"/>
     <use xlink:href="#DejaVuSans-65" x="77.001953"/>
     <use xlink:href="#DejaVuSans-6d" x="138.525391"/>
     <use xlink:href="#DejaVuSans-65" x="235.9375"/>
     <use xlink:href="#DejaVuSans-74" x="297.460938"/>
     <use xlink:href="#DejaVuSans-68" x="336.669922"/>
     <use xlink:href="#DejaVuSans-79" x="400.048828"/>
     <use xlink:href="#DejaVuSans-6c" x="459.228516"/>
     <use xlink:href="#DejaVuSans-61" x="487.011719"/>
     <use xlink:href="#DejaVuSans-74" x="548.291016"/>
     <use xlink:href="#DejaVuSans-65" x="587.5"/>
     <use xlink:href="#DejaVuSans-64" x="649.023438"/>
     <use xlink:href="#DejaVuSans-20" x="712.5"/>
     <use xlink:href="#DejaVuSans-61" x="744.287109"/>
     <use xlink:href="#DejaVuSans-74" x="805.566406"/>
    </g>
    <!-- $t=0$ -->
    <g transform="translate(287.705625 29.7555) scale(0.12 -0.12)">
     <use xlink:href="#DejaVuSans-Oblique-74" transform="translate(0 0.78125)"/>
     <use xlink:href="#DejaVuSans-3d" transform="translate(58.691406 0.78125)"/>
     <use xlink:href="#DejaVuSans-30" transform="translate(161.962891 0.78125)"/>
    </g>
   </g>
   <g id="legend_2">
    <g id="line2d_36">
     <path d="M 275.158566 169.3155 
L 282.158566 169.3155 
L 289.158566 169.3155 
" style="fill: none; stroke: #bebada; stroke-width: 2; stroke-linecap: square"/>
    </g>
    <g id="text_19">
     <!-- $p=0.5\cdot10^{-4}$, $q=0$ -->
     <g transform="translate(294.758566 171.7655) scale(0.07 -0.07)">
      <defs>
       <path id="DejaVuSans-2c" d="M 750 794 
L 1409 794 
L 1409 256 
L 897 -744 
L 494 -744 
L 750 256 
L 750 794 
z
" transform="scale(0.015625)"/>
      </defs>
      <use xlink:href="#DejaVuSans-Oblique-70" transform="translate(0 0.684375)"/>
      <use xlink:href="#DejaVuSans-3d" transform="translate(82.958984 0.684375)"/>
      <use xlink:href="#DejaVuSans-30" transform="translate(186.230469 0.684375)"/>
      <use xlink:href="#DejaVuSans-2e" transform="translate(249.853516 0.684375)"/>
      <use xlink:href="#DejaVuSans-35" transform="translate(281.640625 0.684375)"/>
      <use xlink:href="#DejaVuSans-22c5" transform="translate(364.746094 0.684375)"/>
      <use xlink:href="#DejaVuSans-31" transform="translate(416.015625 0.684375)"/>
      <use xlink:href="#DejaVuSans-30" transform="translate(479.638672 0.684375)"/>
      <use xlink:href="#DejaVuSans-2212" transform="translate(544.21875 38.965625) scale(0.7)"/>
      <use xlink:href="#DejaVuSans-34" transform="translate(602.871094 38.965625) scale(0.7)"/>
      <use xlink:href="#DejaVuSans-2c" transform="translate(650.141602 0.684375)"/>
      <use xlink:href="#DejaVuSans-20" transform="translate(681.928711 0.684375)"/>
      <use xlink:href="#DejaVuSans-Oblique-71" transform="translate(713.71582 0.684375)"/>
      <use xlink:href="#DejaVuSans-3d" transform="translate(796.674805 0.684375)"/>
      <use xlink:href="#DejaVuSans-30" transform="translate(899.946289 0.684375)"/>
     </g>
    </g>
    <g id="line2d_37">
     <path d="M 275.158566 180.5855 
L 282.158566 180.5855 
L 289.158566 180.5855 
" style="fill: none; stroke: #fb8072; stroke-width: 2; stroke-linecap: square"/>
    </g>
    <g id="text_20">
     <!-- $p=0.5\cdot10^{-4}$, $q=p/2$ -->
     <g transform="translate(294.758566 183.0355) scale(0.07 -0.07)">
      <defs>
       <path id="DejaVuSans-2f" d="M 1625 4666 
L 2156 4666 
L 531 -594 
L 0 -594 
L 1625 4666 
z
" transform="scale(0.015625)"/>
      </defs>
      <use xlink:href="#DejaVuSans-Oblique-70" transform="translate(0 0.684375)"/>
      <use xlink:href="#DejaVuSans-3d" transform="translate(82.958984 0.684375)"/>
      <use xlink:href="#DejaVuSans-30" transform="translate(186.230469 0.684375)"/>
      <use xlink:href="#DejaVuSans-2e" transform="translate(249.853516 0.684375)"/>
      <use xlink:href="#DejaVuSans-35" transform="translate(281.640625 0.684375)"/>
      <use xlink:href="#DejaVuSans-22c5" transform="translate(364.746094 0.684375)"/>
      <use xlink:href="#DejaVuSans-31" transform="translate(416.015625 0.684375)"/>
      <use xlink:href="#DejaVuSans-30" transform="translate(479.638672 0.684375)"/>
      <use xlink:href="#DejaVuSans-2212" transform="translate(544.21875 38.965625) scale(0.7)"/>
      <use xlink:href="#DejaVuSans-34" transform="translate(602.871094 38.965625) scale(0.7)"/>
      <use xlink:href="#DejaVuSans-2c" transform="translate(650.141602 0.684375)"/>
      <use xlink:href="#DejaVuSans-20" transform="translate(681.928711 0.684375)"/>
      <use xlink:href="#DejaVuSans-Oblique-71" transform="translate(713.71582 0.684375)"/>
      <use xlink:href="#DejaVuSans-3d" transform="translate(796.674805 0.684375)"/>
      <use xlink:href="#DejaVuSans-Oblique-70" transform="translate(899.946289 0.684375)"/>
      <use xlink:href="#DejaVuSans-2f" transform="translate(963.422852 0.684375)"/>
      <use xlink:href="#DejaVuSans-32" transform="translate(993.489258 0.684375)"/>
     </g>
    </g>
    <g id="line2d_38">
     <path d="M 275.158566 191.8555 
L 282.158566 191.8555 
L 289.158566 191.8555 
" style="fill: none; stroke: #80b1d3; stroke-width: 2; stroke-linecap: square"/>
    </g>
    <g id="text_21">
     <!-- $p=q/2$. $q=0.5\cdot10^{-4}$ -->
     <g transform="translate(294.758566 194.3055) scale(0.07 -0.07)">
      <use xlink:href="#DejaVuSans-Oblique-70" transform="translate(0 0.684375)"/>
      <use xlink:href="#DejaVuSans-3d" transform="translate(82.958984 0.684375)"/>
      <use xlink:href="#DejaVuSans-Oblique-71" transform="translate(186.230469 0.684375)"/>
      <use xlink:href="#DejaVuSans-2f" transform="translate(249.707031 0.684375)"/>
      <use xlink:href="#DejaVuSans-32" transform="translate(279.773438 0.684375)"/>
      <use xlink:href="#DejaVuSans-2e" transform="translate(343.396484 0.684375)"/>
      <use xlink:href="#DejaVuSans-20" transform="translate(375.183594 0.684375)"/>
      <use xlink:href="#DejaVuSans-Oblique-71" transform="translate(406.970703 0.684375)"/>
      <use xlink:href="#DejaVuSans-3d" transform="translate(489.929688 0.684375)"/>
      <use xlink:href="#DejaVuSans-30" transform="translate(593.201172 0.684375)"/>
      <use xlink:href="#DejaVuSans-2e" transform="translate(656.824219 0.684375)"/>
      <use xlink:href="#DejaVuSans-35" transform="translate(688.611328 0.684375)"/>
      <use xlink:href="#DejaVuSans-22c5" transform="translate(771.716797 0.684375)"/>
      <use xlink:href="#DejaVuSans-31" transform="translate(822.986328 0.684375)"/>
      <use xlink:href="#DejaVuSans-30" transform="translate(886.609375 0.684375)"/>
      <use xlink:href="#DejaVuSans-2212" transform="translate(951.189453 38.965625) scale(0.7)"/>
      <use xlink:href="#DejaVuSans-34" transform="translate(1009.841797 38.965625) scale(0.7)"/>
     </g>
    </g>
   </g>
  </g>
  <g id="axes_3">
   <g id="patch_12">
    <path d="M 404.659743 202.0755 
L 552.365625 202.0755 
L 552.365625 35.7555 
L 404.659743 35.7555 
z
" style="fill: #ffffff"/>
   </g>
   <g id="matplotlib.axis_5">
    <g id="xtick_7">
     <g id="line2d_39">
      <g>
       <use xlink:href="#mc520ad0c1e" x="411.373646" y="202.0755" style="stroke: #000000; stroke-width: 0.8"/>
      </g>
     </g>
     <g id="text_22">
      <!-- 0 -->
      <g transform="translate(408.192396 216.673938) scale(0.1 -0.1)">
       <use xlink:href="#DejaVuSans-30"/>
      </g>
     </g>
    </g>
    <g id="xtick_8">
     <g id="line2d_40">
      <g>
       <use xlink:href="#mc520ad0c1e" x="478.513355" y="202.0755" style="stroke: #000000; stroke-width: 0.8"/>
      </g>
     </g>
     <g id="text_23">
      <!-- 50000 -->
      <g transform="translate(462.607105 216.673938) scale(0.1 -0.1)">
       <use xlink:href="#DejaVuSans-35"/>
       <use xlink:href="#DejaVuSans-30" x="63.623047"/>
       <use xlink:href="#DejaVuSans-30" x="127.246094"/>
       <use xlink:href="#DejaVuSans-30" x="190.869141"/>
       <use xlink:href="#DejaVuSans-30" x="254.492188"/>
      </g>
     </g>
    </g>
    <g id="xtick_9">
     <g id="line2d_41">
      <g>
       <use xlink:href="#mc520ad0c1e" x="545.653064" y="202.0755" style="stroke: #000000; stroke-width: 0.8"/>
      </g>
     </g>
     <g id="text_24">
      <!-- 100000 -->
      <g transform="translate(526.565564 216.673938) scale(0.1 -0.1)">
       <use xlink:href="#DejaVuSans-31"/>
       <use xlink:href="#DejaVuSans-30" x="63.623047"/>
       <use xlink:href="#DejaVuSans-30" x="127.246094"/>
       <use xlink:href="#DejaVuSans-30" x="190.869141"/>
       <use xlink:href="#DejaVuSans-30" x="254.492188"/>
       <use xlink:href="#DejaVuSans-30" x="318.115234"/>
      </g>
     </g>
    </g>
    <g id="text_25">
     <!-- Time step -->
     <g transform="translate(453.874403 230.352063) scale(0.1 -0.1)">
      <use xlink:href="#DejaVuSans-54"/>
      <use xlink:href="#DejaVuSans-69" x="57.958984"/>
      <use xlink:href="#DejaVuSans-6d" x="85.742188"/>
      <use xlink:href="#DejaVuSans-65" x="183.154297"/>
      <use xlink:href="#DejaVuSans-20" x="244.677734"/>
      <use xlink:href="#DejaVuSans-73" x="276.464844"/>
      <use xlink:href="#DejaVuSans-74" x="328.564453"/>
      <use xlink:href="#DejaVuSans-65" x="367.773438"/>
      <use xlink:href="#DejaVuSans-70" x="429.296875"/>
     </g>
    </g>
   </g>
   <g id="matplotlib.axis_6">
    <g id="ytick_19">
     <g id="line2d_42">
      <g>
       <use xlink:href="#mae94611c33" x="404.659743" y="194.5155" style="stroke: #000000; stroke-width: 0.8"/>
      </g>
     </g>
    </g>
    <g id="ytick_20">
     <g id="line2d_43">
      <g>
       <use xlink:href="#mae94611c33" x="404.659743" y="156.7155" style="stroke: #000000; stroke-width: 0.8"/>
      </g>
     </g>
    </g>
    <g id="ytick_21">
     <g id="line2d_44">
      <g>
       <use xlink:href="#mae94611c33" x="404.659743" y="118.9155" style="stroke: #000000; stroke-width: 0.8"/>
      </g>
     </g>
    </g>
    <g id="ytick_22">
     <g id="line2d_45">
      <g>
       <use xlink:href="#mae94611c33" x="404.659743" y="81.1155" style="stroke: #000000; stroke-width: 0.8"/>
      </g>
     </g>
    </g>
    <g id="ytick_23">
     <g id="line2d_46">
      <g>
       <use xlink:href="#mae94611c33" x="404.659743" y="43.3155" style="stroke: #000000; stroke-width: 0.8"/>
      </g>
     </g>
    </g>
    <g id="ytick_24">
     <g id="line2d_47">
      <g>
       <use xlink:href="#m498ca21ea9" x="404.659743" y="175.6155" style="stroke: #000000; stroke-width: 0.6"/>
      </g>
     </g>
    </g>
    <g id="ytick_25">
     <g id="line2d_48">
      <g>
       <use xlink:href="#m498ca21ea9" x="404.659743" y="137.8155" style="stroke: #000000; stroke-width: 0.6"/>
      </g>
     </g>
    </g>
    <g id="ytick_26">
     <g id="line2d_49">
      <g>
       <use xlink:href="#m498ca21ea9" x="404.659743" y="100.0155" style="stroke: #000000; stroke-width: 0.6"/>
      </g>
     </g>
    </g>
    <g id="ytick_27">
     <g id="line2d_50">
      <g>
       <use xlink:href="#m498ca21ea9" x="404.659743" y="62.2155" style="stroke: #000000; stroke-width: 0.6"/>
      </g>
     </g>
    </g>
   </g>
   <g id="line2d_51">
    <path d="M 404.659743 118.9155 
L 552.365625 118.9155 
" clip-path="url(#p219ba89dcf)" style="fill: none; stroke: #d9d9d9; stroke-width: 1.5; stroke-linecap: square"/>
   </g>
   <g id="line2d_52">
    <path d="M 404.659743 194.5155 
L 552.365625 194.5155 
" clip-path="url(#p219ba89dcf)" style="fill: none; stroke: #d9d9d9; stroke-width: 1.5; stroke-linecap: square"/>
   </g>
   <g id="line2d_53">
    <path d="M 404.659743 144.1155 
L 552.365625 144.1155 
" clip-path="url(#p219ba89dcf)" style="fill: none; stroke: #d9d9d9; stroke-width: 1.5; stroke-linecap: square"/>
   </g>
   <g id="line2d_54">
    <path d="M 411.373646 43.32306 
L 413.152849 52.704299 
L 414.936079 60.938695 
L 416.724681 68.16932 
L 418.52134 74.524814 
L 420.326055 80.107635 
L 422.142856 85.01885 
L 423.974427 89.341093 
L 425.82614 93.150874 
L 427.703366 96.512487 
L 429.61282 99.482195 
L 431.5639 102.110422 
L 433.567349 104.439767 
L 435.636594 106.507196 
L 437.789093 108.345097 
L 440.04633 109.980738 
L 442.436504 111.437685 
L 444.991841 112.733566 
L 447.753969 113.88298 
L 450.779284 114.898202 
L 454.140298 115.787803 
L 457.93772 116.55828 
L 462.317915 117.214415 
L 467.503786 117.759406 
L 473.867287 118.195768 
L 482.094587 118.525499 
L 493.685587 118.751001 
L 512.99631 118.876454 
L 545.651721 118.912069 
L 545.651721 118.912069 
" clip-path="url(#p219ba89dcf)" style="fill: none; stroke: #bebada; stroke-width: 2; stroke-linecap: square"/>
   </g>
   <g id="line2d_55">
    <path d="M 411.373646 43.32306 
L 413.873929 56.764028 
L 416.37824 69.028922 
L 418.88658 80.218941 
L 421.401633 90.437135 
L 423.923401 99.765506 
L 426.453225 108.283665 
L 428.992449 116.063493 
L 431.543758 123.173538 
L 434.108495 129.671635 
L 436.690688 135.616159 
L 439.293023 141.055834 
L 441.919528 146.036776 
L 444.574232 150.599771 
L 447.263849 154.784964 
L 449.99375 158.625184 
L 452.770648 162.15091 
L 455.603944 165.391508 
L 458.504379 168.373072 
L 461.484039 171.118523 
L 464.55501 173.646726 
L 467.734746 175.976975 
L 471.042048 178.125065 
L 474.499743 180.105179 
L 478.132002 181.928163 
L 481.97105 183.604868 
L 486.054487 185.143899 
L 490.425282 186.551512 
L 495.141176 187.834114 
L 500.270649 188.995815 
L 505.905014 190.040459 
L 512.16512 190.970956 
L 519.213447 191.789179 
L 527.284983 192.496917 
L 536.730197 193.095458 
L 545.651721 193.49685 
L 545.651721 193.49685 
" clip-path="url(#p219ba89dcf)" style="fill: none; stroke: #fb8072; stroke-width: 2; stroke-linecap: square"/>
   </g>
   <g id="line2d_56">
    <path d="M 411.373646 43.32306 
L 413.42275 54.22349 
L 415.475883 63.963105 
L 417.533043 72.663532 
L 419.596918 80.443422 
L 421.668849 87.401744 
L 423.751523 93.629936 
L 425.846282 99.204487 
L 427.955812 104.196451 
L 430.085483 108.673443 
L 432.239325 112.690786 
L 434.422708 116.298702 
L 436.642347 119.542202 
L 438.907641 122.462789 
L 441.229332 125.096265 
L 443.619506 127.473231 
L 446.092933 129.62069 
L 448.667069 131.561865 
L 451.366085 133.318648 
L 454.215495 134.907261 
L 457.247524 136.341831 
L 460.5038 137.634593 
L 464.035348 138.79481 
L 467.906624 139.829431 
L 472.206251 140.744495 
L 477.052395 141.543906 
L 482.615591 142.230761 
L 489.154999 142.807466 
L 497.08957 143.275763 
L 507.16724 143.637222 
L 520.932223 143.893797 
L 542.41693 144.048727 
L 545.651721 144.059765 
L 545.651721 144.059765 
" clip-path="url(#p219ba89dcf)" style="fill: none; stroke: #80b1d3; stroke-width: 2; stroke-linecap: square"/>
   </g>
   <g id="patch_13">
    <path d="M 404.659743 202.0755 
L 404.659743 35.7555 
" style="fill: none; stroke: #000000; stroke-width: 0.8; stroke-linejoin: miter; stroke-linecap: square"/>
   </g>
   <g id="patch_14">
    <path d="M 552.365625 202.0755 
L 552.365625 35.7555 
" style="fill: none; stroke: #000000; stroke-width: 0.8; stroke-linejoin: miter; stroke-linecap: square"/>
   </g>
   <g id="patch_15">
    <path d="M 404.659743 202.0755 
L 552.365625 202.0755 
" style="fill: none; stroke: #000000; stroke-width: 0.8; stroke-linejoin: miter; stroke-linecap: square"/>
   </g>
   <g id="patch_16">
    <path d="M 404.659743 35.7555 
L 552.365625 35.7555 
" style="fill: none; stroke: #000000; stroke-width: 0.8; stroke-linejoin: miter; stroke-linecap: square"/>
   </g>
   <g id="text_26">
    <!-- Methylated at -->
    <g transform="translate(436.805184 16.318125) scale(0.12 -0.12)">
     <defs>
      <path id="DejaVuSans-4d" d="M 628 4666 
L 1569 4666 
L 2759 1491 
L 3956 4666 
L 4897 4666 
L 4897 0 
L 4281 0 
L 4281 4097 
L 3078 897 
L 2444 897 
L 1241 4097 
L 1241 0 
L 628 0 
L 628 4666 
z
" transform="scale(0.015625)"/>
     </defs>
     <use xlink:href="#DejaVuSans-4d"/>
     <use xlink:href="#DejaVuSans-65" x="86.279297"/>
     <use xlink:href="#DejaVuSans-74" x="147.802734"/>
     <use xlink:href="#DejaVuSans-68" x="187.011719"/>
     <use xlink:href="#DejaVuSans-79" x="250.390625"/>
     <use xlink:href="#DejaVuSans-6c" x="309.570312"/>
     <use xlink:href="#DejaVuSans-61" x="337.353516"/>
     <use xlink:href="#DejaVuSans-74" x="398.632812"/>
     <use xlink:href="#DejaVuSans-65" x="437.841797"/>
     <use xlink:href="#DejaVuSans-64" x="499.365234"/>
     <use xlink:href="#DejaVuSans-20" x="562.841797"/>
     <use xlink:href="#DejaVuSans-61" x="594.628906"/>
     <use xlink:href="#DejaVuSans-74" x="655.908203"/>
    </g>
    <!-- $t=0$ -->
    <g transform="translate(464.952684 29.7555) scale(0.12 -0.12)">
     <use xlink:href="#DejaVuSans-Oblique-74" transform="translate(0 0.78125)"/>
     <use xlink:href="#DejaVuSans-3d" transform="translate(58.691406 0.78125)"/>
     <use xlink:href="#DejaVuSans-30" transform="translate(161.962891 0.78125)"/>
    </g>
   </g>
   <g id="legend_3">
    <g id="line2d_57">
     <path d="M 452.405625 45.9055 
L 459.405625 45.9055 
L 466.405625 45.9055 
" style="fill: none; stroke: #bebada; stroke-width: 2; stroke-linecap: square"/>
    </g>
    <g id="text_27">
     <!-- $p=q=0.5\cdot10^{-4}$ -->
     <g transform="translate(472.005625 48.3555) scale(0.07 -0.07)">
      <use xlink:href="#DejaVuSans-Oblique-70" transform="translate(0 0.684375)"/>
      <use xlink:href="#DejaVuSans-3d" transform="translate(82.958984 0.684375)"/>
      <use xlink:href="#DejaVuSans-Oblique-71" transform="translate(186.230469 0.684375)"/>
      <use xlink:href="#DejaVuSans-3d" transform="translate(269.189453 0.684375)"/>
      <use xlink:href="#DejaVuSans-30" transform="translate(372.460938 0.684375)"/>
      <use xlink:href="#DejaVuSans-2e" transform="translate(436.083984 0.684375)"/>
      <use xlink:href="#DejaVuSans-35" transform="translate(467.871094 0.684375)"/>
      <use xlink:href="#DejaVuSans-22c5" transform="translate(550.976562 0.684375)"/>
      <use xlink:href="#DejaVuSans-31" transform="translate(602.246094 0.684375)"/>
      <use xlink:href="#DejaVuSans-30" transform="translate(665.869141 0.684375)"/>
      <use xlink:href="#DejaVuSans-2212" transform="translate(730.449219 38.965625) scale(0.7)"/>
      <use xlink:href="#DejaVuSans-34" transform="translate(789.101562 38.965625) scale(0.7)"/>
     </g>
    </g>
    <g id="line2d_58">
     <path d="M 452.405625 57.1755 
L 459.405625 57.1755 
L 466.405625 57.1755 
" style="fill: none; stroke: #fb8072; stroke-width: 2; stroke-linecap: square"/>
    </g>
    <g id="text_28">
     <!-- $p=0$, $q=0.5\cdot10^{-4}$ -->
     <g transform="translate(472.005625 59.6255) scale(0.07 -0.07)">
      <use xlink:href="#DejaVuSans-Oblique-70" transform="translate(0 0.684375)"/>
      <use xlink:href="#DejaVuSans-3d" transform="translate(82.958984 0.684375)"/>
      <use xlink:href="#DejaVuSans-30" transform="translate(186.230469 0.684375)"/>
      <use xlink:href="#DejaVuSans-2c" transform="translate(249.853516 0.684375)"/>
      <use xlink:href="#DejaVuSans-20" transform="translate(281.640625 0.684375)"/>
      <use xlink:href="#DejaVuSans-Oblique-71" transform="translate(313.427734 0.684375)"/>
      <use xlink:href="#DejaVuSans-3d" transform="translate(396.386719 0.684375)"/>
      <use xlink:href="#DejaVuSans-30" transform="translate(499.658203 0.684375)"/>
      <use xlink:href="#DejaVuSans-2e" transform="translate(563.28125 0.684375)"/>
      <use xlink:href="#DejaVuSans-35" transform="translate(595.068359 0.684375)"/>
      <use xlink:href="#DejaVuSans-22c5" transform="translate(678.173828 0.684375)"/>
      <use xlink:href="#DejaVuSans-31" transform="translate(729.443359 0.684375)"/>
      <use xlink:href="#DejaVuSans-30" transform="translate(793.066406 0.684375)"/>
      <use xlink:href="#DejaVuSans-2212" transform="translate(857.646484 38.965625) scale(0.7)"/>
      <use xlink:href="#DejaVuSans-34" transform="translate(916.298828 38.965625) scale(0.7)"/>
     </g>
    </g>
    <g id="line2d_59">
     <path d="M 452.405625 68.4455 
L 459.405625 68.4455 
L 466.405625 68.4455 
" style="fill: none; stroke: #80b1d3; stroke-width: 2; stroke-linecap: square"/>
    </g>
    <g id="text_29">
     <!-- $p=q/2$, $q=0.5\cdot10^{-4}$ -->
     <g transform="translate(472.005625 70.8955) scale(0.07 -0.07)">
      <use xlink:href="#DejaVuSans-Oblique-70" transform="translate(0 0.684375)"/>
      <use xlink:href="#DejaVuSans-3d" transform="translate(82.958984 0.684375)"/>
      <use xlink:href="#DejaVuSans-Oblique-71" transform="translate(186.230469 0.684375)"/>
      <use xlink:href="#DejaVuSans-2f" transform="translate(249.707031 0.684375)"/>
      <use xlink:href="#DejaVuSans-32" transform="translate(279.773438 0.684375)"/>
      <use xlink:href="#DejaVuSans-2c" transform="translate(343.396484 0.684375)"/>
      <use xlink:href="#DejaVuSans-20" transform="translate(375.183594 0.684375)"/>
      <use xlink:href="#DejaVuSans-Oblique-71" transform="translate(406.970703 0.684375)"/>
      <use xlink:href="#DejaVuSans-3d" transform="translate(489.929688 0.684375)"/>
      <use xlink:href="#DejaVuSans-30" transform="translate(593.201172 0.684375)"/>
      <use xlink:href="#DejaVuSans-2e" transform="translate(656.824219 0.684375)"/>
      <use xlink:href="#DejaVuSans-35" transform="translate(688.611328 0.684375)"/>
      <use xlink:href="#DejaVuSans-22c5" transform="translate(771.716797 0.684375)"/>
      <use xlink:href="#DejaVuSans-31" transform="translate(822.986328 0.684375)"/>
      <use xlink:href="#DejaVuSans-30" transform="translate(886.609375 0.684375)"/>
      <use xlink:href="#DejaVuSans-2212" transform="translate(951.189453 38.965625) scale(0.7)"/>
      <use xlink:href="#DejaVuSans-34" transform="translate(1009.841797 38.965625) scale(0.7)"/>
     </g>
    </g>
   </g>
  </g>
 </g>
 <defs>
  <clipPath id="p4c84aa63a5">
   <rect x="50.165625" y="35.7555" width="147.705882" height="166.32"/>
  </clipPath>
  <clipPath id="pb43ccd1970">
   <rect x="227.412684" y="35.7555" width="147.705882" height="166.32"/>
  </clipPath>
  <clipPath id="p219ba89dcf">
   <rect x="404.659743" y="35.7555" width="147.705882" height="166.32"/>
  </clipPath>
 </defs>
</svg>
