<?xml version="1.0" encoding="utf-8" standalone="no"?>
<!DOCTYPE svg PUBLIC "-//W3C//DTD SVG 1.1//EN"
  "http://www.w3.org/Graphics/SVG/1.1/DTD/svg11.dtd">
<svg xmlns:xlink="http://www.w3.org/1999/xlink" width="856.55875pt" height="285.03625pt" viewBox="0 0 856.55875 285.03625" xmlns="http://www.w3.org/2000/svg" version="1.1">
 <metadata>
  <rdf:RDF xmlns:dc="http://purl.org/dc/elements/1.1/" xmlns:cc="http://creativecommons.org/ns#" xmlns:rdf="http://www.w3.org/1999/02/22-rdf-syntax-ns#">
   <cc:Work>
    <dc:type rdf:resource="http://purl.org/dc/dcmitype/StillImage"/>
    <dc:date>2024-12-19T17:26:49.020417</dc:date>
    <dc:format>image/svg+xml</dc:format>
    <dc:creator>
     <cc:Agent>
      <dc:title>Matplotlib v3.8.0, https://matplotlib.org/</dc:title>
     </cc:Agent>
    </dc:creator>
   </cc:Work>
  </rdf:RDF>
 </metadata>
 <defs>
  <style type="text/css">*{stroke-linejoin: round; stroke-linecap: butt}</style>
 </defs>
 <g id="figure_1">
  <g id="patch_1">
   <path d="M -0 285.03625 
L 856.55875 285.03625 
L 856.55875 0 
L -0 0 
z
" style="fill: #ffffff"/>
  </g>
  <g id="axes_1">
   <g id="patch_2">
    <path d="M 62.86875 247.48 
L 280.55875 247.48 
L 280.55875 52.08 
L 62.86875 52.08 
z
" style="fill: #ffffff"/>
   </g>
   <g id="matplotlib.axis_1">
    <g id="xtick_1">
     <g id="line2d_1">
      <defs>
       <path id="mffdf4e61ac" d="M 0 0 
L 0 3.5 
" style="stroke: #000000; stroke-width: 0.8"/>
      </defs>
      <g>
       <use xlink:href="#mffdf4e61ac" x="72.76375" y="247.48" style="stroke: #000000; stroke-width: 0.8"/>
      </g>
     </g>
     <g id="text_1">
      <!-- 0 -->
      <g transform="translate(69.5825 262.078437) scale(0.1 -0.1)">
       <defs>
        <path id="DejaVuSans-30" d="M 2034 4250 
Q 1547 4250 1301 3770 
Q 1056 3291 1056 2328 
Q 1056 1369 1301 889 
Q 1547 409 2034 409 
Q 2525 409 2770 889 
Q 3016 1369 3016 2328 
Q 3016 3291 2770 3770 
Q 2525 4250 2034 4250 
z
M 2034 4750 
Q 2819 4750 3233 4129 
Q 3647 3509 3647 2328 
Q 3647 1150 3233 529 
Q 2819 -91 2034 -91 
Q 1250 -91 836 529 
Q 422 1150 422 2328 
Q 422 3509 836 4129 
Q 1250 4750 2034 4750 
z
" transform="scale(0.015625)"/>
       </defs>
       <use xlink:href="#DejaVuSans-30"/>
      </g>
     </g>
    </g>
    <g id="xtick_2">
     <g id="line2d_2">
      <g>
       <use xlink:href="#mffdf4e61ac" x="110.997908" y="247.48" style="stroke: #000000; stroke-width: 0.8"/>
      </g>
     </g>
     <g id="text_2">
      <!-- 250 -->
      <g transform="translate(101.454158 262.078437) scale(0.1 -0.1)">
       <defs>
        <path id="DejaVuSans-32" d="M 1228 531 
L 3431 531 
L 3431 0 
L 469 0 
L 469 531 
Q 828 903 1448 1529 
Q 2069 2156 2228 2338 
Q 2531 2678 2651 2914 
Q 2772 3150 2772 3378 
Q 2772 3750 2511 3984 
Q 2250 4219 1831 4219 
Q 1534 4219 1204 4116 
Q 875 4013 500 3803 
L 500 4441 
Q 881 4594 1212 4672 
Q 1544 4750 1819 4750 
Q 2544 4750 2975 4387 
Q 3406 4025 3406 3419 
Q 3406 3131 3298 2873 
Q 3191 2616 2906 2266 
Q 2828 2175 2409 1742 
Q 1991 1309 1228 531 
z
" transform="scale(0.015625)"/>
        <path id="DejaVuSans-35" d="M 691 4666 
L 3169 4666 
L 3169 4134 
L 1269 4134 
L 1269 2991 
Q 1406 3038 1543 3061 
Q 1681 3084 1819 3084 
Q 2600 3084 3056 2656 
Q 3513 2228 3513 1497 
Q 3513 744 3044 326 
Q 2575 -91 1722 -91 
Q 1428 -91 1123 -41 
Q 819 9 494 109 
L 494 744 
Q 775 591 1075 516 
Q 1375 441 1709 441 
Q 2250 441 2565 725 
Q 2881 1009 2881 1497 
Q 2881 1984 2565 2268 
Q 2250 2553 1709 2553 
Q 1456 2553 1204 2497 
Q 953 2441 691 2322 
L 691 4666 
z
" transform="scale(0.015625)"/>
       </defs>
       <use xlink:href="#DejaVuSans-32"/>
       <use xlink:href="#DejaVuSans-35" x="63.623047"/>
       <use xlink:href="#DejaVuSans-30" x="127.246094"/>
      </g>
     </g>
    </g>
    <g id="xtick_3">
     <g id="line2d_3">
      <g>
       <use xlink:href="#mffdf4e61ac" x="149.232065" y="247.48" style="stroke: #000000; stroke-width: 0.8"/>
      </g>
     </g>
     <g id="text_3">
      <!-- 500 -->
      <g transform="translate(139.688315 262.078437) scale(0.1 -0.1)">
       <use xlink:href="#DejaVuSans-35"/>
       <use xlink:href="#DejaVuSans-30" x="63.623047"/>
       <use xlink:href="#DejaVuSans-30" x="127.246094"/>
      </g>
     </g>
    </g>
    <g id="xtick_4">
     <g id="line2d_4">
      <g>
       <use xlink:href="#mffdf4e61ac" x="187.466223" y="247.48" style="stroke: #000000; stroke-width: 0.8"/>
      </g>
     </g>
     <g id="text_4">
      <!-- 750 -->
      <g transform="translate(177.922473 262.078437) scale(0.1 -0.1)">
       <defs>
        <path id="DejaVuSans-37" d="M 525 4666 
L 3525 4666 
L 3525 4397 
L 1831 0 
L 1172 0 
L 2766 4134 
L 525 4134 
L 525 4666 
z
" transform="scale(0.015625)"/>
       </defs>
       <use xlink:href="#DejaVuSans-37"/>
       <use xlink:href="#DejaVuSans-35" x="63.623047"/>
       <use xlink:href="#DejaVuSans-30" x="127.246094"/>
      </g>
     </g>
    </g>
    <g id="xtick_5">
     <g id="line2d_5">
      <g>
       <use xlink:href="#mffdf4e61ac" x="225.700381" y="247.48" style="stroke: #000000; stroke-width: 0.8"/>
      </g>
     </g>
     <g id="text_5">
      <!-- 1000 -->
      <g transform="translate(212.975381 262.078437) scale(0.1 -0.1)">
       <defs>
        <path id="DejaVuSans-31" d="M 794 531 
L 1825 531 
L 1825 4091 
L 703 3866 
L 703 4441 
L 1819 4666 
L 2450 4666 
L 2450 531 
L 3481 531 
L 3481 0 
L 794 0 
L 794 531 
z
" transform="scale(0.015625)"/>
       </defs>
       <use xlink:href="#DejaVuSans-31"/>
       <use xlink:href="#DejaVuSans-30" x="63.623047"/>
       <use xlink:href="#DejaVuSans-30" x="127.246094"/>
       <use xlink:href="#DejaVuSans-30" x="190.869141"/>
      </g>
     </g>
    </g>
    <g id="xtick_6">
     <g id="line2d_6">
      <g>
       <use xlink:href="#mffdf4e61ac" x="263.934538" y="247.48" style="stroke: #000000; stroke-width: 0.8"/>
      </g>
     </g>
     <g id="text_6">
      <!-- 1250 -->
      <g transform="translate(251.209538 262.078437) scale(0.1 -0.1)">
       <use xlink:href="#DejaVuSans-31"/>
       <use xlink:href="#DejaVuSans-32" x="63.623047"/>
       <use xlink:href="#DejaVuSans-35" x="127.246094"/>
       <use xlink:href="#DejaVuSans-30" x="190.869141"/>
      </g>
     </g>
    </g>
    <g id="text_7">
     <!-- Time step -->
     <g transform="translate(147.075469 275.756562) scale(0.1 -0.1)">
      <defs>
       <path id="DejaVuSans-54" d="M -19 4666 
L 3928 4666 
L 3928 4134 
L 2272 4134 
L 2272 0 
L 1638 0 
L 1638 4134 
L -19 4134 
L -19 4666 
z
" transform="scale(0.015625)"/>
       <path id="DejaVuSans-69" d="M 603 3500 
L 1178 3500 
L 1178 0 
L 603 0 
L 603 3500 
z
M 603 4863 
L 1178 4863 
L 1178 4134 
L 603 4134 
L 603 4863 
z
" transform="scale(0.015625)"/>
       <path id="DejaVuSans-6d" d="M 3328 2828 
Q 3544 3216 3844 3400 
Q 4144 3584 4550 3584 
Q 5097 3584 5394 3201 
Q 5691 2819 5691 2113 
L 5691 0 
L 5113 0 
L 5113 2094 
Q 5113 2597 4934 2840 
Q 4756 3084 4391 3084 
Q 3944 3084 3684 2787 
Q 3425 2491 3425 1978 
L 3425 0 
L 2847 0 
L 2847 2094 
Q 2847 2600 2669 2842 
Q 2491 3084 2119 3084 
Q 1678 3084 1418 2786 
Q 1159 2488 1159 1978 
L 1159 0 
L 581 0 
L 581 3500 
L 1159 3500 
L 1159 2956 
Q 1356 3278 1631 3431 
Q 1906 3584 2284 3584 
Q 2666 3584 2933 3390 
Q 3200 3197 3328 2828 
z
" transform="scale(0.015625)"/>
       <path id="DejaVuSans-65" d="M 3597 1894 
L 3597 1613 
L 953 1613 
Q 991 1019 1311 708 
Q 1631 397 2203 397 
Q 2534 397 2845 478 
Q 3156 559 3463 722 
L 3463 178 
Q 3153 47 2828 -22 
Q 2503 -91 2169 -91 
Q 1331 -91 842 396 
Q 353 884 353 1716 
Q 353 2575 817 3079 
Q 1281 3584 2069 3584 
Q 2775 3584 3186 3129 
Q 3597 2675 3597 1894 
z
M 3022 2063 
Q 3016 2534 2758 2815 
Q 2500 3097 2075 3097 
Q 1594 3097 1305 2825 
Q 1016 2553 972 2059 
L 3022 2063 
z
" transform="scale(0.015625)"/>
       <path id="DejaVuSans-20" transform="scale(0.015625)"/>
       <path id="DejaVuSans-73" d="M 2834 3397 
L 2834 2853 
Q 2591 2978 2328 3040 
Q 2066 3103 1784 3103 
Q 1356 3103 1142 2972 
Q 928 2841 928 2578 
Q 928 2378 1081 2264 
Q 1234 2150 1697 2047 
L 1894 2003 
Q 2506 1872 2764 1633 
Q 3022 1394 3022 966 
Q 3022 478 2636 193 
Q 2250 -91 1575 -91 
Q 1294 -91 989 -36 
Q 684 19 347 128 
L 347 722 
Q 666 556 975 473 
Q 1284 391 1588 391 
Q 1994 391 2212 530 
Q 2431 669 2431 922 
Q 2431 1156 2273 1281 
Q 2116 1406 1581 1522 
L 1381 1569 
Q 847 1681 609 1914 
Q 372 2147 372 2553 
Q 372 3047 722 3315 
Q 1072 3584 1716 3584 
Q 2034 3584 2315 3537 
Q 2597 3491 2834 3397 
z
" transform="scale(0.015625)"/>
       <path id="DejaVuSans-74" d="M 1172 4494 
L 1172 3500 
L 2356 3500 
L 2356 3053 
L 1172 3053 
L 1172 1153 
Q 1172 725 1289 603 
Q 1406 481 1766 481 
L 2356 481 
L 2356 0 
L 1766 0 
Q 1100 0 847 248 
Q 594 497 594 1153 
L 594 3053 
L 172 3053 
L 172 3500 
L 594 3500 
L 594 4494 
L 1172 4494 
z
" transform="scale(0.015625)"/>
       <path id="DejaVuSans-70" d="M 1159 525 
L 1159 -1331 
L 581 -1331 
L 581 3500 
L 1159 3500 
L 1159 2969 
Q 1341 3281 1617 3432 
Q 1894 3584 2278 3584 
Q 2916 3584 3314 3078 
Q 3713 2572 3713 1747 
Q 3713 922 3314 415 
Q 2916 -91 2278 -91 
Q 1894 -91 1617 61 
Q 1341 213 1159 525 
z
M 3116 1747 
Q 3116 2381 2855 2742 
Q 2594 3103 2138 3103 
Q 1681 3103 1420 2742 
Q 1159 2381 1159 1747 
Q 1159 1113 1420 752 
Q 1681 391 2138 391 
Q 2594 391 2855 752 
Q 3116 1113 3116 1747 
z
" transform="scale(0.015625)"/>
      </defs>
      <use xlink:href="#DejaVuSans-54"/>
      <use xlink:href="#DejaVuSans-69" x="57.958984"/>
      <use xlink:href="#DejaVuSans-6d" x="85.742188"/>
      <use xlink:href="#DejaVuSans-65" x="183.154297"/>
      <use xlink:href="#DejaVuSans-20" x="244.677734"/>
      <use xlink:href="#DejaVuSans-73" x="276.464844"/>
      <use xlink:href="#DejaVuSans-74" x="328.564453"/>
      <use xlink:href="#DejaVuSans-65" x="367.773438"/>
      <use xlink:href="#DejaVuSans-70" x="429.296875"/>
     </g>
    </g>
   </g>
   <g id="matplotlib.axis_2">
    <g id="ytick_1">
     <g id="line2d_7">
      <defs>
       <path id="mc452030c32" d="M 0 0 
L -3.5 0 
" style="stroke: #000000; stroke-width: 0.8"/>
      </defs>
      <g>
       <use xlink:href="#mc452030c32" x="62.86875" y="241.289727" style="stroke: #000000; stroke-width: 0.8"/>
      </g>
     </g>
     <g id="text_8">
      <!-- 0.0944 -->
      <g transform="translate(20.878125 245.088946) scale(0.1 -0.1)">
       <defs>
        <path id="DejaVuSans-2e" d="M 684 794 
L 1344 794 
L 1344 0 
L 684 0 
L 684 794 
z
" transform="scale(0.015625)"/>
        <path id="DejaVuSans-39" d="M 703 97 
L 703 672 
Q 941 559 1184 500 
Q 1428 441 1663 441 
Q 2288 441 2617 861 
Q 2947 1281 2994 2138 
Q 2813 1869 2534 1725 
Q 2256 1581 1919 1581 
Q 1219 1581 811 2004 
Q 403 2428 403 3163 
Q 403 3881 828 4315 
Q 1253 4750 1959 4750 
Q 2769 4750 3195 4129 
Q 3622 3509 3622 2328 
Q 3622 1225 3098 567 
Q 2575 -91 1691 -91 
Q 1453 -91 1209 -44 
Q 966 3 703 97 
z
M 1959 2075 
Q 2384 2075 2632 2365 
Q 2881 2656 2881 3163 
Q 2881 3666 2632 3958 
Q 2384 4250 1959 4250 
Q 1534 4250 1286 3958 
Q 1038 3666 1038 3163 
Q 1038 2656 1286 2365 
Q 1534 2075 1959 2075 
z
" transform="scale(0.015625)"/>
        <path id="DejaVuSans-34" d="M 2419 4116 
L 825 1625 
L 2419 1625 
L 2419 4116 
z
M 2253 4666 
L 3047 4666 
L 3047 1625 
L 3713 1625 
L 3713 1100 
L 3047 1100 
L 3047 0 
L 2419 0 
L 2419 1100 
L 313 1100 
L 313 1709 
L 2253 4666 
z
" transform="scale(0.015625)"/>
       </defs>
       <use xlink:href="#DejaVuSans-30"/>
       <use xlink:href="#DejaVuSans-2e" x="63.623047"/>
       <use xlink:href="#DejaVuSans-30" x="95.410156"/>
       <use xlink:href="#DejaVuSans-39" x="159.033203"/>
       <use xlink:href="#DejaVuSans-34" x="222.65625"/>
       <use xlink:href="#DejaVuSans-34" x="286.279297"/>
      </g>
     </g>
    </g>
    <g id="ytick_2">
     <g id="line2d_8">
      <g>
       <use xlink:href="#mc452030c32" x="62.86875" y="219.408737" style="stroke: #000000; stroke-width: 0.8"/>
      </g>
     </g>
     <g id="text_9">
      <!-- 0.0945 -->
      <g transform="translate(20.878125 223.207956) scale(0.1 -0.1)">
       <use xlink:href="#DejaVuSans-30"/>
       <use xlink:href="#DejaVuSans-2e" x="63.623047"/>
       <use xlink:href="#DejaVuSans-30" x="95.410156"/>
       <use xlink:href="#DejaVuSans-39" x="159.033203"/>
       <use xlink:href="#DejaVuSans-34" x="222.65625"/>
       <use xlink:href="#DejaVuSans-35" x="286.279297"/>
      </g>
     </g>
    </g>
    <g id="ytick_3">
     <g id="line2d_9">
      <g>
       <use xlink:href="#mc452030c32" x="62.86875" y="197.527747" style="stroke: #000000; stroke-width: 0.8"/>
      </g>
     </g>
     <g id="text_10">
      <!-- 0.0946 -->
      <g transform="translate(20.878125 201.326966) scale(0.1 -0.1)">
       <defs>
        <path id="DejaVuSans-36" d="M 2113 2584 
Q 1688 2584 1439 2293 
Q 1191 2003 1191 1497 
Q 1191 994 1439 701 
Q 1688 409 2113 409 
Q 2538 409 2786 701 
Q 3034 994 3034 1497 
Q 3034 2003 2786 2293 
Q 2538 2584 2113 2584 
z
M 3366 4563 
L 3366 3988 
Q 3128 4100 2886 4159 
Q 2644 4219 2406 4219 
Q 1781 4219 1451 3797 
Q 1122 3375 1075 2522 
Q 1259 2794 1537 2939 
Q 1816 3084 2150 3084 
Q 2853 3084 3261 2657 
Q 3669 2231 3669 1497 
Q 3669 778 3244 343 
Q 2819 -91 2113 -91 
Q 1303 -91 875 529 
Q 447 1150 447 2328 
Q 447 3434 972 4092 
Q 1497 4750 2381 4750 
Q 2619 4750 2861 4703 
Q 3103 4656 3366 4563 
z
" transform="scale(0.015625)"/>
       </defs>
       <use xlink:href="#DejaVuSans-30"/>
       <use xlink:href="#DejaVuSans-2e" x="63.623047"/>
       <use xlink:href="#DejaVuSans-30" x="95.410156"/>
       <use xlink:href="#DejaVuSans-39" x="159.033203"/>
       <use xlink:href="#DejaVuSans-34" x="222.65625"/>
       <use xlink:href="#DejaVuSans-36" x="286.279297"/>
      </g>
     </g>
    </g>
    <g id="ytick_4">
     <g id="line2d_10">
      <g>
       <use xlink:href="#mc452030c32" x="62.86875" y="175.646757" style="stroke: #000000; stroke-width: 0.8"/>
      </g>
     </g>
     <g id="text_11">
      <!-- 0.0947 -->
      <g transform="translate(20.878125 179.445975) scale(0.1 -0.1)">
       <use xlink:href="#DejaVuSans-30"/>
       <use xlink:href="#DejaVuSans-2e" x="63.623047"/>
       <use xlink:href="#DejaVuSans-30" x="95.410156"/>
       <use xlink:href="#DejaVuSans-39" x="159.033203"/>
       <use xlink:href="#DejaVuSans-34" x="222.65625"/>
       <use xlink:href="#DejaVuSans-37" x="286.279297"/>
      </g>
     </g>
    </g>
    <g id="ytick_5">
     <g id="line2d_11">
      <g>
       <use xlink:href="#mc452030c32" x="62.86875" y="153.765767" style="stroke: #000000; stroke-width: 0.8"/>
      </g>
     </g>
     <g id="text_12">
      <!-- 0.0948 -->
      <g transform="translate(20.878125 157.564985) scale(0.1 -0.1)">
       <defs>
        <path id="DejaVuSans-38" d="M 2034 2216 
Q 1584 2216 1326 1975 
Q 1069 1734 1069 1313 
Q 1069 891 1326 650 
Q 1584 409 2034 409 
Q 2484 409 2743 651 
Q 3003 894 3003 1313 
Q 3003 1734 2745 1975 
Q 2488 2216 2034 2216 
z
M 1403 2484 
Q 997 2584 770 2862 
Q 544 3141 544 3541 
Q 544 4100 942 4425 
Q 1341 4750 2034 4750 
Q 2731 4750 3128 4425 
Q 3525 4100 3525 3541 
Q 3525 3141 3298 2862 
Q 3072 2584 2669 2484 
Q 3125 2378 3379 2068 
Q 3634 1759 3634 1313 
Q 3634 634 3220 271 
Q 2806 -91 2034 -91 
Q 1263 -91 848 271 
Q 434 634 434 1313 
Q 434 1759 690 2068 
Q 947 2378 1403 2484 
z
M 1172 3481 
Q 1172 3119 1398 2916 
Q 1625 2713 2034 2713 
Q 2441 2713 2670 2916 
Q 2900 3119 2900 3481 
Q 2900 3844 2670 4047 
Q 2441 4250 2034 4250 
Q 1625 4250 1398 4047 
Q 1172 3844 1172 3481 
z
" transform="scale(0.015625)"/>
       </defs>
       <use xlink:href="#DejaVuSans-30"/>
       <use xlink:href="#DejaVuSans-2e" x="63.623047"/>
       <use xlink:href="#DejaVuSans-30" x="95.410156"/>
       <use xlink:href="#DejaVuSans-39" x="159.033203"/>
       <use xlink:href="#DejaVuSans-34" x="222.65625"/>
       <use xlink:href="#DejaVuSans-38" x="286.279297"/>
      </g>
     </g>
    </g>
    <g id="ytick_6">
     <g id="line2d_12">
      <g>
       <use xlink:href="#mc452030c32" x="62.86875" y="131.884776" style="stroke: #000000; stroke-width: 0.8"/>
      </g>
     </g>
     <g id="text_13">
      <!-- 0.0949 -->
      <g transform="translate(20.878125 135.683995) scale(0.1 -0.1)">
       <use xlink:href="#DejaVuSans-30"/>
       <use xlink:href="#DejaVuSans-2e" x="63.623047"/>
       <use xlink:href="#DejaVuSans-30" x="95.410156"/>
       <use xlink:href="#DejaVuSans-39" x="159.033203"/>
       <use xlink:href="#DejaVuSans-34" x="222.65625"/>
       <use xlink:href="#DejaVuSans-39" x="286.279297"/>
      </g>
     </g>
    </g>
    <g id="ytick_7">
     <g id="line2d_13">
      <g>
       <use xlink:href="#mc452030c32" x="62.86875" y="110.003786" style="stroke: #000000; stroke-width: 0.8"/>
      </g>
     </g>
     <g id="text_14">
      <!-- 0.0950 -->
      <g transform="translate(20.878125 113.803005) scale(0.1 -0.1)">
       <use xlink:href="#DejaVuSans-30"/>
       <use xlink:href="#DejaVuSans-2e" x="63.623047"/>
       <use xlink:href="#DejaVuSans-30" x="95.410156"/>
       <use xlink:href="#DejaVuSans-39" x="159.033203"/>
       <use xlink:href="#DejaVuSans-35" x="222.65625"/>
       <use xlink:href="#DejaVuSans-30" x="286.279297"/>
      </g>
     </g>
    </g>
    <g id="ytick_8">
     <g id="line2d_14">
      <g>
       <use xlink:href="#mc452030c32" x="62.86875" y="88.122796" style="stroke: #000000; stroke-width: 0.8"/>
      </g>
     </g>
     <g id="text_15">
      <!-- 0.0951 -->
      <g transform="translate(20.878125 91.922015) scale(0.1 -0.1)">
       <use xlink:href="#DejaVuSans-30"/>
       <use xlink:href="#DejaVuSans-2e" x="63.623047"/>
       <use xlink:href="#DejaVuSans-30" x="95.410156"/>
       <use xlink:href="#DejaVuSans-39" x="159.033203"/>
       <use xlink:href="#DejaVuSans-35" x="222.65625"/>
       <use xlink:href="#DejaVuSans-31" x="286.279297"/>
      </g>
     </g>
    </g>
    <g id="ytick_9">
     <g id="line2d_15">
      <g>
       <use xlink:href="#mc452030c32" x="62.86875" y="66.241806" style="stroke: #000000; stroke-width: 0.8"/>
      </g>
     </g>
     <g id="text_16">
      <!-- 0.0952 -->
      <g transform="translate(20.878125 70.041025) scale(0.1 -0.1)">
       <use xlink:href="#DejaVuSans-30"/>
       <use xlink:href="#DejaVuSans-2e" x="63.623047"/>
       <use xlink:href="#DejaVuSans-30" x="95.410156"/>
       <use xlink:href="#DejaVuSans-39" x="159.033203"/>
       <use xlink:href="#DejaVuSans-35" x="222.65625"/>
       <use xlink:href="#DejaVuSans-32" x="286.279297"/>
      </g>
     </g>
    </g>
    <g id="text_17">
     <!-- DNAm -->
     <g transform="translate(14.798438 165.66125) rotate(-90) scale(0.1 -0.1)">
      <defs>
       <path id="DejaVuSans-44" d="M 1259 4147 
L 1259 519 
L 2022 519 
Q 2988 519 3436 956 
Q 3884 1394 3884 2338 
Q 3884 3275 3436 3711 
Q 2988 4147 2022 4147 
L 1259 4147 
z
M 628 4666 
L 1925 4666 
Q 3281 4666 3915 4102 
Q 4550 3538 4550 2338 
Q 4550 1131 3912 565 
Q 3275 0 1925 0 
L 628 0 
L 628 4666 
z
" transform="scale(0.015625)"/>
       <path id="DejaVuSans-4e" d="M 628 4666 
L 1478 4666 
L 3547 763 
L 3547 4666 
L 4159 4666 
L 4159 0 
L 3309 0 
L 1241 3903 
L 1241 0 
L 628 0 
L 628 4666 
z
" transform="scale(0.015625)"/>
       <path id="DejaVuSans-41" d="M 2188 4044 
L 1331 1722 
L 3047 1722 
L 2188 4044 
z
M 1831 4666 
L 2547 4666 
L 4325 0 
L 3669 0 
L 3244 1197 
L 1141 1197 
L 716 0 
L 50 0 
L 1831 4666 
z
" transform="scale(0.015625)"/>
      </defs>
      <use xlink:href="#DejaVuSans-44"/>
      <use xlink:href="#DejaVuSans-4e" x="77.001953"/>
      <use xlink:href="#DejaVuSans-41" x="151.806641"/>
      <use xlink:href="#DejaVuSans-6d" x="220.214844"/>
     </g>
    </g>
   </g>
   <g id="line2d_16">
    <path d="M 72.76375 238.598182 
L 91.269082 238.598182 
L 91.422019 234.835039 
L 102.73933 234.835039 
L 102.892266 227.744709 
L 126.597444 227.744709 
L 126.750381 227.532811 
L 127.056254 227.532811 
L 127.20919 225.287917 
L 151.373178 225.287917 
L 151.526115 213.191147 
L 168.960891 213.191147 
L 169.113827 197.526286 
L 175.384229 197.526286 
L 175.537166 187.935418 
L 190.219082 187.935418 
L 190.372019 182.213285 
L 191.136702 182.213285 
L 191.289639 159.070511 
L 225.088634 158.995417 
L 225.241571 150.479134 
L 239.311741 150.479134 
L 239.464677 129.351023 
L 243.288093 129.351023 
L 243.44103 113.789054 
L 270.66375 113.789054 
L 270.66375 113.789054 
" clip-path="url(#p76a1067772)" style="fill: none; stroke: #bebada; stroke-width: 2; stroke-linecap: square"/>
   </g>
   <g id="line2d_17">
    <path d="M 72.76375 238.598182 
L 75.210736 238.598182 
L 75.363673 232.358128 
L 91.269082 232.358128 
L 91.422019 214.020686 
L 97.386548 214.020686 
L 97.539484 201.605789 
L 103.809886 201.605789 
L 103.962823 186.044335 
L 104.421633 186.044335 
L 104.574569 172.2128 
L 149.385002 172.2128 
L 149.537939 162.136192 
L 159.784693 162.136192 
L 159.937629 157.529647 
L 164.066918 157.529647 
L 164.219855 155.144694 
L 174.772483 155.144694 
L 174.925419 144.799823 
L 207.347985 144.799823 
L 207.500922 119.728 
L 233.806022 119.728 
L 233.958959 91.160423 
L 250.323178 91.160423 
L 250.476115 71.189596 
L 263.628665 71.189596 
L 263.781602 60.961818 
L 270.66375 60.961818 
L 270.66375 60.961818 
" clip-path="url(#p76a1067772)" style="fill: none; stroke: #fb8072; stroke-width: 2; stroke-linecap: square"/>
   </g>
   <g id="line2d_18">
    <path d="M 72.76375 238.598182 
L 97.386548 238.598182 
L 97.539484 220.428084 
L 120.938789 220.428084 
L 121.091725 206.085779 
L 131.797289 206.085779 
L 131.950226 203.083602 
L 136.844198 203.083602 
L 136.997135 194.761155 
L 138.067691 194.761155 
L 138.220628 175.08147 
L 142.65579 175.08147 
L 142.808727 170.129405 
L 152.443735 170.129405 
L 152.596671 168.60027 
L 209.642034 168.60027 
L 209.794971 139.127223 
L 224.782761 139.127223 
L 225.088634 139.016032 
L 234.417769 139.016032 
L 234.570705 118.972098 
L 251.852544 118.972098 
L 252.005481 75.117298 
L 270.66375 75.117298 
L 270.66375 75.117298 
" clip-path="url(#p76a1067772)" style="fill: none; stroke: #80b1d3; stroke-width: 2; stroke-linecap: square"/>
   </g>
   <g id="patch_3">
    <path d="M 62.86875 247.48 
L 62.86875 52.08 
" style="fill: none; stroke: #000000; stroke-width: 0.8; stroke-linejoin: miter; stroke-linecap: square"/>
   </g>
   <g id="patch_4">
    <path d="M 280.55875 247.48 
L 280.55875 52.08 
" style="fill: none; stroke: #000000; stroke-width: 0.8; stroke-linejoin: miter; stroke-linecap: square"/>
   </g>
   <g id="patch_5">
    <path d="M 62.86875 247.48 
L 280.55875 247.48 
" style="fill: none; stroke: #000000; stroke-width: 0.8; stroke-linejoin: miter; stroke-linecap: square"/>
   </g>
   <g id="patch_6">
    <path d="M 62.86875 52.08 
L 280.55875 52.08 
" style="fill: none; stroke: #000000; stroke-width: 0.8; stroke-linejoin: miter; stroke-linecap: square"/>
   </g>
   <g id="text_18">
    <!-- cg15341340, EffSize=0.001 -->
    <g transform="translate(87.714688 46.08) scale(0.12 -0.12)">
     <defs>
      <path id="DejaVuSans-63" d="M 3122 3366 
L 3122 2828 
Q 2878 2963 2633 3030 
Q 2388 3097 2138 3097 
Q 1578 3097 1268 2742 
Q 959 2388 959 1747 
Q 959 1106 1268 751 
Q 1578 397 2138 397 
Q 2388 397 2633 464 
Q 2878 531 3122 666 
L 3122 134 
Q 2881 22 2623 -34 
Q 2366 -91 2075 -91 
Q 1284 -91 818 406 
Q 353 903 353 1747 
Q 353 2603 823 3093 
Q 1294 3584 2113 3584 
Q 2378 3584 2631 3529 
Q 2884 3475 3122 3366 
z
" transform="scale(0.015625)"/>
      <path id="DejaVuSans-67" d="M 2906 1791 
Q 2906 2416 2648 2759 
Q 2391 3103 1925 3103 
Q 1463 3103 1205 2759 
Q 947 2416 947 1791 
Q 947 1169 1205 825 
Q 1463 481 1925 481 
Q 2391 481 2648 825 
Q 2906 1169 2906 1791 
z
M 3481 434 
Q 3481 -459 3084 -895 
Q 2688 -1331 1869 -1331 
Q 1566 -1331 1297 -1286 
Q 1028 -1241 775 -1147 
L 775 -588 
Q 1028 -725 1275 -790 
Q 1522 -856 1778 -856 
Q 2344 -856 2625 -561 
Q 2906 -266 2906 331 
L 2906 616 
Q 2728 306 2450 153 
Q 2172 0 1784 0 
Q 1141 0 747 490 
Q 353 981 353 1791 
Q 353 2603 747 3093 
Q 1141 3584 1784 3584 
Q 2172 3584 2450 3431 
Q 2728 3278 2906 2969 
L 2906 3500 
L 3481 3500 
L 3481 434 
z
" transform="scale(0.015625)"/>
      <path id="DejaVuSans-33" d="M 2597 2516 
Q 3050 2419 3304 2112 
Q 3559 1806 3559 1356 
Q 3559 666 3084 287 
Q 2609 -91 1734 -91 
Q 1441 -91 1130 -33 
Q 819 25 488 141 
L 488 750 
Q 750 597 1062 519 
Q 1375 441 1716 441 
Q 2309 441 2620 675 
Q 2931 909 2931 1356 
Q 2931 1769 2642 2001 
Q 2353 2234 1838 2234 
L 1294 2234 
L 1294 2753 
L 1863 2753 
Q 2328 2753 2575 2939 
Q 2822 3125 2822 3475 
Q 2822 3834 2567 4026 
Q 2313 4219 1838 4219 
Q 1578 4219 1281 4162 
Q 984 4106 628 3988 
L 628 4550 
Q 988 4650 1302 4700 
Q 1616 4750 1894 4750 
Q 2613 4750 3031 4423 
Q 3450 4097 3450 3541 
Q 3450 3153 3228 2886 
Q 3006 2619 2597 2516 
z
" transform="scale(0.015625)"/>
      <path id="DejaVuSans-2c" d="M 750 794 
L 1409 794 
L 1409 256 
L 897 -744 
L 494 -744 
L 750 256 
L 750 794 
z
" transform="scale(0.015625)"/>
      <path id="DejaVuSans-45" d="M 628 4666 
L 3578 4666 
L 3578 4134 
L 1259 4134 
L 1259 2753 
L 3481 2753 
L 3481 2222 
L 1259 2222 
L 1259 531 
L 3634 531 
L 3634 0 
L 628 0 
L 628 4666 
z
" transform="scale(0.015625)"/>
      <path id="DejaVuSans-66" d="M 2375 4863 
L 2375 4384 
L 1825 4384 
Q 1516 4384 1395 4259 
Q 1275 4134 1275 3809 
L 1275 3500 
L 2222 3500 
L 2222 3053 
L 1275 3053 
L 1275 0 
L 697 0 
L 697 3053 
L 147 3053 
L 147 3500 
L 697 3500 
L 697 3744 
Q 697 4328 969 4595 
Q 1241 4863 1831 4863 
L 2375 4863 
z
" transform="scale(0.015625)"/>
      <path id="DejaVuSans-53" d="M 3425 4513 
L 3425 3897 
Q 3066 4069 2747 4153 
Q 2428 4238 2131 4238 
Q 1616 4238 1336 4038 
Q 1056 3838 1056 3469 
Q 1056 3159 1242 3001 
Q 1428 2844 1947 2747 
L 2328 2669 
Q 3034 2534 3370 2195 
Q 3706 1856 3706 1288 
Q 3706 609 3251 259 
Q 2797 -91 1919 -91 
Q 1588 -91 1214 -16 
Q 841 59 441 206 
L 441 856 
Q 825 641 1194 531 
Q 1563 422 1919 422 
Q 2459 422 2753 634 
Q 3047 847 3047 1241 
Q 3047 1584 2836 1778 
Q 2625 1972 2144 2069 
L 1759 2144 
Q 1053 2284 737 2584 
Q 422 2884 422 3419 
Q 422 4038 858 4394 
Q 1294 4750 2059 4750 
Q 2388 4750 2728 4690 
Q 3069 4631 3425 4513 
z
" transform="scale(0.015625)"/>
      <path id="DejaVuSans-7a" d="M 353 3500 
L 3084 3500 
L 3084 2975 
L 922 459 
L 3084 459 
L 3084 0 
L 275 0 
L 275 525 
L 2438 3041 
L 353 3041 
L 353 3500 
z
" transform="scale(0.015625)"/>
      <path id="DejaVuSans-3d" d="M 678 2906 
L 4684 2906 
L 4684 2381 
L 678 2381 
L 678 2906 
z
M 678 1631 
L 4684 1631 
L 4684 1100 
L 678 1100 
L 678 1631 
z
" transform="scale(0.015625)"/>
     </defs>
     <use xlink:href="#DejaVuSans-63"/>
     <use xlink:href="#DejaVuSans-67" x="54.980469"/>
     <use xlink:href="#DejaVuSans-31" x="118.457031"/>
     <use xlink:href="#DejaVuSans-35" x="182.080078"/>
     <use xlink:href="#DejaVuSans-33" x="245.703125"/>
     <use xlink:href="#DejaVuSans-34" x="309.326172"/>
     <use xlink:href="#DejaVuSans-31" x="372.949219"/>
     <use xlink:href="#DejaVuSans-33" x="436.572266"/>
     <use xlink:href="#DejaVuSans-34" x="500.195312"/>
     <use xlink:href="#DejaVuSans-30" x="563.818359"/>
     <use xlink:href="#DejaVuSans-2c" x="627.441406"/>
     <use xlink:href="#DejaVuSans-20" x="659.228516"/>
     <use xlink:href="#DejaVuSans-45" x="691.015625"/>
     <use xlink:href="#DejaVuSans-66" x="754.199219"/>
     <use xlink:href="#DejaVuSans-66" x="789.404297"/>
     <use xlink:href="#DejaVuSans-53" x="824.609375"/>
     <use xlink:href="#DejaVuSans-69" x="888.085938"/>
     <use xlink:href="#DejaVuSans-7a" x="915.869141"/>
     <use xlink:href="#DejaVuSans-65" x="968.359375"/>
     <use xlink:href="#DejaVuSans-3d" x="1029.882812"/>
     <use xlink:href="#DejaVuSans-30" x="1113.671875"/>
     <use xlink:href="#DejaVuSans-2e" x="1177.294922"/>
     <use xlink:href="#DejaVuSans-30" x="1209.082031"/>
     <use xlink:href="#DejaVuSans-30" x="1272.705078"/>
     <use xlink:href="#DejaVuSans-31" x="1336.328125"/>
    </g>
   </g>
  </g>
  <g id="axes_2">
   <g id="patch_7">
    <path d="M 347.26875 247.48 
L 564.95875 247.48 
L 564.95875 52.08 
L 347.26875 52.08 
z
" style="fill: #ffffff"/>
   </g>
   <g id="matplotlib.axis_3">
    <g id="xtick_7">
     <g id="line2d_19">
      <g>
       <use xlink:href="#mffdf4e61ac" x="357.16375" y="247.48" style="stroke: #000000; stroke-width: 0.8"/>
      </g>
     </g>
     <g id="text_19">
      <!-- 0 -->
      <g transform="translate(353.9825 262.078437) scale(0.1 -0.1)">
       <use xlink:href="#DejaVuSans-30"/>
      </g>
     </g>
    </g>
    <g id="xtick_8">
     <g id="line2d_20">
      <g>
       <use xlink:href="#mffdf4e61ac" x="395.397908" y="247.48" style="stroke: #000000; stroke-width: 0.8"/>
      </g>
     </g>
     <g id="text_20">
      <!-- 250 -->
      <g transform="translate(385.854158 262.078437) scale(0.1 -0.1)">
       <use xlink:href="#DejaVuSans-32"/>
       <use xlink:href="#DejaVuSans-35" x="63.623047"/>
       <use xlink:href="#DejaVuSans-30" x="127.246094"/>
      </g>
     </g>
    </g>
    <g id="xtick_9">
     <g id="line2d_21">
      <g>
       <use xlink:href="#mffdf4e61ac" x="433.632065" y="247.48" style="stroke: #000000; stroke-width: 0.8"/>
      </g>
     </g>
     <g id="text_21">
      <!-- 500 -->
      <g transform="translate(424.088315 262.078437) scale(0.1 -0.1)">
       <use xlink:href="#DejaVuSans-35"/>
       <use xlink:href="#DejaVuSans-30" x="63.623047"/>
       <use xlink:href="#DejaVuSans-30" x="127.246094"/>
      </g>
     </g>
    </g>
    <g id="xtick_10">
     <g id="line2d_22">
      <g>
       <use xlink:href="#mffdf4e61ac" x="471.866223" y="247.48" style="stroke: #000000; stroke-width: 0.8"/>
      </g>
     </g>
     <g id="text_22">
      <!-- 750 -->
      <g transform="translate(462.322473 262.078437) scale(0.1 -0.1)">
       <use xlink:href="#DejaVuSans-37"/>
       <use xlink:href="#DejaVuSans-35" x="63.623047"/>
       <use xlink:href="#DejaVuSans-30" x="127.246094"/>
      </g>
     </g>
    </g>
    <g id="xtick_11">
     <g id="line2d_23">
      <g>
       <use xlink:href="#mffdf4e61ac" x="510.100381" y="247.48" style="stroke: #000000; stroke-width: 0.8"/>
      </g>
     </g>
     <g id="text_23">
      <!-- 1000 -->
      <g transform="translate(497.375381 262.078437) scale(0.1 -0.1)">
       <use xlink:href="#DejaVuSans-31"/>
       <use xlink:href="#DejaVuSans-30" x="63.623047"/>
       <use xlink:href="#DejaVuSans-30" x="127.246094"/>
       <use xlink:href="#DejaVuSans-30" x="190.869141"/>
      </g>
     </g>
    </g>
    <g id="xtick_12">
     <g id="line2d_24">
      <g>
       <use xlink:href="#mffdf4e61ac" x="548.334538" y="247.48" style="stroke: #000000; stroke-width: 0.8"/>
      </g>
     </g>
     <g id="text_24">
      <!-- 1250 -->
      <g transform="translate(535.609538 262.078437) scale(0.1 -0.1)">
       <use xlink:href="#DejaVuSans-31"/>
       <use xlink:href="#DejaVuSans-32" x="63.623047"/>
       <use xlink:href="#DejaVuSans-35" x="127.246094"/>
       <use xlink:href="#DejaVuSans-30" x="190.869141"/>
      </g>
     </g>
    </g>
    <g id="text_25">
     <!-- Time step -->
     <g transform="translate(431.475469 275.756562) scale(0.1 -0.1)">
      <use xlink:href="#DejaVuSans-54"/>
      <use xlink:href="#DejaVuSans-69" x="57.958984"/>
      <use xlink:href="#DejaVuSans-6d" x="85.742188"/>
      <use xlink:href="#DejaVuSans-65" x="183.154297"/>
      <use xlink:href="#DejaVuSans-20" x="244.677734"/>
      <use xlink:href="#DejaVuSans-73" x="276.464844"/>
      <use xlink:href="#DejaVuSans-74" x="328.564453"/>
      <use xlink:href="#DejaVuSans-65" x="367.773438"/>
      <use xlink:href="#DejaVuSans-70" x="429.296875"/>
     </g>
    </g>
   </g>
   <g id="matplotlib.axis_4">
    <g id="ytick_10">
     <g id="line2d_25">
      <g>
       <use xlink:href="#mc452030c32" x="347.26875" y="238.947879" style="stroke: #000000; stroke-width: 0.8"/>
      </g>
     </g>
     <g id="text_26">
      <!-- 0.1060 -->
      <g transform="translate(305.278125 242.747098) scale(0.1 -0.1)">
       <use xlink:href="#DejaVuSans-30"/>
       <use xlink:href="#DejaVuSans-2e" x="63.623047"/>
       <use xlink:href="#DejaVuSans-31" x="95.410156"/>
       <use xlink:href="#DejaVuSans-30" x="159.033203"/>
       <use xlink:href="#DejaVuSans-36" x="222.65625"/>
       <use xlink:href="#DejaVuSans-30" x="286.279297"/>
      </g>
     </g>
    </g>
    <g id="ytick_11">
     <g id="line2d_26">
      <g>
       <use xlink:href="#mc452030c32" x="347.26875" y="201.076568" style="stroke: #000000; stroke-width: 0.8"/>
      </g>
     </g>
     <g id="text_27">
      <!-- 0.1065 -->
      <g transform="translate(305.278125 204.875787) scale(0.1 -0.1)">
       <use xlink:href="#DejaVuSans-30"/>
       <use xlink:href="#DejaVuSans-2e" x="63.623047"/>
       <use xlink:href="#DejaVuSans-31" x="95.410156"/>
       <use xlink:href="#DejaVuSans-30" x="159.033203"/>
       <use xlink:href="#DejaVuSans-36" x="222.65625"/>
       <use xlink:href="#DejaVuSans-35" x="286.279297"/>
      </g>
     </g>
    </g>
    <g id="ytick_12">
     <g id="line2d_27">
      <g>
       <use xlink:href="#mc452030c32" x="347.26875" y="163.205256" style="stroke: #000000; stroke-width: 0.8"/>
      </g>
     </g>
     <g id="text_28">
      <!-- 0.1070 -->
      <g transform="translate(305.278125 167.004475) scale(0.1 -0.1)">
       <use xlink:href="#DejaVuSans-30"/>
       <use xlink:href="#DejaVuSans-2e" x="63.623047"/>
       <use xlink:href="#DejaVuSans-31" x="95.410156"/>
       <use xlink:href="#DejaVuSans-30" x="159.033203"/>
       <use xlink:href="#DejaVuSans-37" x="222.65625"/>
       <use xlink:href="#DejaVuSans-30" x="286.279297"/>
      </g>
     </g>
    </g>
    <g id="ytick_13">
     <g id="line2d_28">
      <g>
       <use xlink:href="#mc452030c32" x="347.26875" y="125.333945" style="stroke: #000000; stroke-width: 0.8"/>
      </g>
     </g>
     <g id="text_29">
      <!-- 0.1075 -->
      <g transform="translate(305.278125 129.133164) scale(0.1 -0.1)">
       <use xlink:href="#DejaVuSans-30"/>
       <use xlink:href="#DejaVuSans-2e" x="63.623047"/>
       <use xlink:href="#DejaVuSans-31" x="95.410156"/>
       <use xlink:href="#DejaVuSans-30" x="159.033203"/>
       <use xlink:href="#DejaVuSans-37" x="222.65625"/>
       <use xlink:href="#DejaVuSans-35" x="286.279297"/>
      </g>
     </g>
    </g>
    <g id="ytick_14">
     <g id="line2d_29">
      <g>
       <use xlink:href="#mc452030c32" x="347.26875" y="87.462634" style="stroke: #000000; stroke-width: 0.8"/>
      </g>
     </g>
     <g id="text_30">
      <!-- 0.1080 -->
      <g transform="translate(305.278125 91.261852) scale(0.1 -0.1)">
       <use xlink:href="#DejaVuSans-30"/>
       <use xlink:href="#DejaVuSans-2e" x="63.623047"/>
       <use xlink:href="#DejaVuSans-31" x="95.410156"/>
       <use xlink:href="#DejaVuSans-30" x="159.033203"/>
       <use xlink:href="#DejaVuSans-38" x="222.65625"/>
       <use xlink:href="#DejaVuSans-30" x="286.279297"/>
      </g>
     </g>
    </g>
    <g id="text_31">
     <!-- DNAm -->
     <g transform="translate(299.198438 165.66125) rotate(-90) scale(0.1 -0.1)">
      <use xlink:href="#DejaVuSans-44"/>
      <use xlink:href="#DejaVuSans-4e" x="77.001953"/>
      <use xlink:href="#DejaVuSans-41" x="151.806641"/>
      <use xlink:href="#DejaVuSans-6d" x="220.214844"/>
     </g>
    </g>
   </g>
   <g id="line2d_30">
    <path d="M 357.16375 238.598182 
L 363.740025 238.598182 
L 363.892962 236.093883 
L 365.881138 236.093883 
L 366.034075 231.236704 
L 370.010427 231.236704 
L 370.163364 230.08973 
L 380.257181 230.08973 
L 380.410118 219.306399 
L 384.998217 219.306399 
L 385.30409 202.599079 
L 388.974569 202.599079 
L 389.127506 195.725082 
L 393.562668 195.725082 
L 393.715605 192.263248 
L 412.98562 192.263248 
L 413.138557 184.734277 
L 424.149994 184.734277 
L 424.302931 183.796041 
L 429.655713 183.796041 
L 429.80865 182.58224 
L 436.843735 182.58224 
L 436.996671 177.488198 
L 452.137398 177.488198 
L 452.290334 169.938699 
L 454.73732 169.938699 
L 454.890257 165.902235 
L 455.349067 165.902235 
L 455.502003 162.11003 
L 462.231215 162.11003 
L 462.384152 159.097204 
L 486.548139 159.097204 
L 486.701076 157.628077 
L 494.500844 157.628077 
L 494.653781 154.423464 
L 498.78307 154.423464 
L 498.936007 148.87267 
L 504.594662 148.87267 
L 504.747599 146.085131 
L 506.582838 146.085131 
L 506.735775 138.996188 
L 510.406254 138.996188 
L 510.55919 134.621427 
L 510.865064 134.621427 
L 511.018 131.192167 
L 513.77086 131.192167 
L 513.923796 127.097503 
L 523.711741 127.097503 
L 523.864677 115.043973 
L 534.876115 115.043973 
L 535.029051 112.219653 
L 543.899376 112.219653 
L 544.052313 100.17616 
L 550.169778 100.17616 
L 550.322714 97.921651 
L 550.781524 97.921651 
L 550.934461 94.042409 
L 552.616764 94.042409 
L 552.769701 90.185873 
L 555.06375 90.185873 
L 555.06375 90.185873 
" clip-path="url(#p3473bbfb95)" style="fill: none; stroke: #bebada; stroke-width: 2; stroke-linecap: square"/>
   </g>
   <g id="line2d_31">
    <path d="M 357.16375 238.598182 
L 362.516532 238.598182 
L 362.669469 235.463219 
L 364.504708 235.463219 
L 364.657645 230.69223 
L 368.939871 230.69223 
L 369.092807 229.075556 
L 369.39868 229.075556 
L 369.551617 223.945032 
L 375.669082 223.945032 
L 375.822019 220.35653 
L 384.233534 220.35653 
L 384.38647 208.933445 
L 390.503935 208.933445 
L 390.656872 208.679827 
L 404.268232 208.679827 
L 404.421169 207.713161 
L 408.244585 207.713161 
L 408.397521 199.066761 
L 410.385697 199.066761 
L 410.538634 196.106758 
L 415.27967 196.106758 
L 415.432606 190.242564 
L 418.185466 190.242564 
L 418.338402 188.142629 
L 421.091262 188.142629 
L 421.244198 187.71652 
L 422.314755 187.71652 
L 422.467691 179.600092 
L 426.902854 179.600092 
L 427.05579 175.326053 
L 434.243812 175.326053 
L 434.396748 173.793009 
L 434.855558 173.793009 
L 435.008495 169.251722 
L 436.231988 169.251722 
L 436.384925 164.924234 
L 436.537861 164.924234 
L 436.690798 159.664842 
L 445.255249 159.664842 
L 445.408186 155.856522 
L 447.243425 155.856522 
L 447.396362 147.048951 
L 447.549299 147.048951 
L 447.702235 145.44335 
L 457.03137 145.44335 
L 457.184306 143.074821 
L 461.313595 143.074821 
L 461.466532 139.681626 
L 464.219391 139.681626 
L 464.372328 137.85542 
L 470.336857 137.85542 
L 470.489793 133.815835 
L 474.924956 133.815835 
L 475.077892 133.428288 
L 477.219005 133.428288 
L 477.371942 129.523906 
L 483.489407 129.523906 
L 483.642344 127.412483 
L 488.689252 127.412483 
L 488.842189 126.48036 
L 490.524492 126.48036 
L 490.677429 121.960497 
L 493.124415 121.960497 
L 493.277351 118.645811 
L 503.218232 118.645811 
L 503.371169 117.014533 
L 506.276965 117.014533 
L 506.429901 110.450764 
L 507.959268 110.450764 
L 508.112204 104.011864 
L 514.22967 104.011864 
L 514.382606 103.087706 
L 520.958881 103.087706 
L 521.111818 102.781911 
L 527.688093 102.781911 
L 527.84103 102.571076 
L 530.746826 102.571076 
L 530.899762 94.855799 
L 546.499299 94.855799 
L 546.652235 90.357413 
L 551.087398 90.357413 
L 551.240334 89.844364 
L 554.452003 89.844364 
L 554.60494 79.6145 
L 555.06375 79.6145 
L 555.06375 79.6145 
" clip-path="url(#p3473bbfb95)" style="fill: none; stroke: #fb8072; stroke-width: 2; stroke-linecap: square"/>
   </g>
   <g id="line2d_32">
    <path d="M 357.16375 238.598182 
L 359.151926 238.598182 
L 359.304863 238.237672 
L 363.128279 238.237672 
L 363.281215 234.323971 
L 363.740025 234.323971 
L 363.892962 232.029739 
L 366.034075 232.029739 
L 366.187011 223.661603 
L 368.939871 223.661603 
L 369.092807 213.094687 
L 375.363209 213.094687 
L 375.516146 205.250619 
L 380.410118 205.250619 
L 380.563054 204.551572 
L 381.021864 204.551572 
L 381.174801 204.025252 
L 399.37426 203.938557 
L 399.527197 202.956321 
L 400.75069 202.956321 
L 400.903626 200.91935 
L 404.574105 200.91935 
L 404.727042 192.050227 
L 417.420782 192.050227 
L 417.573719 183.207802 
L 418.185466 183.207802 
L 418.338402 180.59019 
L 420.632452 180.59019 
L 420.785388 174.98371 
L 422.008881 174.98371 
L 422.161818 170.869265 
L 443.42001 170.869265 
L 443.572946 170.623976 
L 451.066841 170.623976 
L 451.219778 161.501643 
L 451.984461 161.501643 
L 452.137398 158.093493 
L 457.03137 158.093493 
L 457.184306 157.307532 
L 458.407799 157.307532 
L 458.560736 155.953982 
L 462.384152 155.953982 
L 462.537088 135.715206 
L 471.254476 135.715206 
L 471.407413 134.257676 
L 477.371942 134.16117 
L 477.524878 132.45303 
L 482.265914 132.45303 
L 482.41885 131.691235 
L 486.548139 131.691235 
L 486.854013 122.730162 
L 494.500844 122.730162 
L 494.653781 114.517288 
L 494.959654 114.517288 
L 495.112591 108.845859 
L 496.641957 108.845859 
L 496.794894 107.663127 
L 508.112204 107.663127 
L 508.265141 105.723585 
L 509.335697 105.723585 
L 509.488634 92.182828 
L 512.39443 92.182828 
L 512.547367 87.451291 
L 532.582065 87.451291 
L 532.735002 86.548497 
L 535.334925 86.548497 
L 535.487861 82.989944 
L 535.640798 71.755072 
L 553.075574 71.755072 
L 553.22851 60.961818 
L 555.06375 60.961818 
L 555.06375 60.961818 
" clip-path="url(#p3473bbfb95)" style="fill: none; stroke: #80b1d3; stroke-width: 2; stroke-linecap: square"/>
   </g>
   <g id="patch_8">
    <path d="M 347.26875 247.48 
L 347.26875 52.08 
" style="fill: none; stroke: #000000; stroke-width: 0.8; stroke-linejoin: miter; stroke-linecap: square"/>
   </g>
   <g id="patch_9">
    <path d="M 564.95875 247.48 
L 564.95875 52.08 
" style="fill: none; stroke: #000000; stroke-width: 0.8; stroke-linejoin: miter; stroke-linecap: square"/>
   </g>
   <g id="patch_10">
    <path d="M 347.26875 247.48 
L 564.95875 247.48 
" style="fill: none; stroke: #000000; stroke-width: 0.8; stroke-linejoin: miter; stroke-linecap: square"/>
   </g>
   <g id="patch_11">
    <path d="M 347.26875 52.08 
L 564.95875 52.08 
" style="fill: none; stroke: #000000; stroke-width: 0.8; stroke-linejoin: miter; stroke-linecap: square"/>
   </g>
   <g id="text_32">
    <!-- cg14992253, EffSize=0.003 -->
    <g transform="translate(372.114688 46.08) scale(0.12 -0.12)">
     <use xlink:href="#DejaVuSans-63"/>
     <use xlink:href="#DejaVuSans-67" x="54.980469"/>
     <use xlink:href="#DejaVuSans-31" x="118.457031"/>
     <use xlink:href="#DejaVuSans-34" x="182.080078"/>
     <use xlink:href="#DejaVuSans-39" x="245.703125"/>
     <use xlink:href="#DejaVuSans-39" x="309.326172"/>
     <use xlink:href="#DejaVuSans-32" x="372.949219"/>
     <use xlink:href="#DejaVuSans-32" x="436.572266"/>
     <use xlink:href="#DejaVuSans-35" x="500.195312"/>
     <use xlink:href="#DejaVuSans-33" x="563.818359"/>
     <use xlink:href="#DejaVuSans-2c" x="627.441406"/>
     <use xlink:href="#DejaVuSans-20" x="659.228516"/>
     <use xlink:href="#DejaVuSans-45" x="691.015625"/>
     <use xlink:href="#DejaVuSans-66" x="754.199219"/>
     <use xlink:href="#DejaVuSans-66" x="789.404297"/>
     <use xlink:href="#DejaVuSans-53" x="824.609375"/>
     <use xlink:href="#DejaVuSans-69" x="888.085938"/>
     <use xlink:href="#DejaVuSans-7a" x="915.869141"/>
     <use xlink:href="#DejaVuSans-65" x="968.359375"/>
     <use xlink:href="#DejaVuSans-3d" x="1029.882812"/>
     <use xlink:href="#DejaVuSans-30" x="1113.671875"/>
     <use xlink:href="#DejaVuSans-2e" x="1177.294922"/>
     <use xlink:href="#DejaVuSans-30" x="1209.082031"/>
     <use xlink:href="#DejaVuSans-30" x="1272.705078"/>
     <use xlink:href="#DejaVuSans-33" x="1336.328125"/>
    </g>
   </g>
  </g>
  <g id="axes_3">
   <g id="patch_12">
    <path d="M 631.66875 247.48 
L 849.35875 247.48 
L 849.35875 52.08 
L 631.66875 52.08 
z
" style="fill: #ffffff"/>
   </g>
   <g id="matplotlib.axis_5">
    <g id="xtick_13">
     <g id="line2d_33">
      <g>
       <use xlink:href="#mffdf4e61ac" x="641.56375" y="247.48" style="stroke: #000000; stroke-width: 0.8"/>
      </g>
     </g>
     <g id="text_33">
      <!-- 0 -->
      <g transform="translate(638.3825 262.078437) scale(0.1 -0.1)">
       <use xlink:href="#DejaVuSans-30"/>
      </g>
     </g>
    </g>
    <g id="xtick_14">
     <g id="line2d_34">
      <g>
       <use xlink:href="#mffdf4e61ac" x="679.797908" y="247.48" style="stroke: #000000; stroke-width: 0.8"/>
      </g>
     </g>
     <g id="text_34">
      <!-- 250 -->
      <g transform="translate(670.254158 262.078437) scale(0.1 -0.1)">
       <use xlink:href="#DejaVuSans-32"/>
       <use xlink:href="#DejaVuSans-35" x="63.623047"/>
       <use xlink:href="#DejaVuSans-30" x="127.246094"/>
      </g>
     </g>
    </g>
    <g id="xtick_15">
     <g id="line2d_35">
      <g>
       <use xlink:href="#mffdf4e61ac" x="718.032065" y="247.48" style="stroke: #000000; stroke-width: 0.8"/>
      </g>
     </g>
     <g id="text_35">
      <!-- 500 -->
      <g transform="translate(708.488315 262.078437) scale(0.1 -0.1)">
       <use xlink:href="#DejaVuSans-35"/>
       <use xlink:href="#DejaVuSans-30" x="63.623047"/>
       <use xlink:href="#DejaVuSans-30" x="127.246094"/>
      </g>
     </g>
    </g>
    <g id="xtick_16">
     <g id="line2d_36">
      <g>
       <use xlink:href="#mffdf4e61ac" x="756.266223" y="247.48" style="stroke: #000000; stroke-width: 0.8"/>
      </g>
     </g>
     <g id="text_36">
      <!-- 750 -->
      <g transform="translate(746.722473 262.078437) scale(0.1 -0.1)">
       <use xlink:href="#DejaVuSans-37"/>
       <use xlink:href="#DejaVuSans-35" x="63.623047"/>
       <use xlink:href="#DejaVuSans-30" x="127.246094"/>
      </g>
     </g>
    </g>
    <g id="xtick_17">
     <g id="line2d_37">
      <g>
       <use xlink:href="#mffdf4e61ac" x="794.500381" y="247.48" style="stroke: #000000; stroke-width: 0.8"/>
      </g>
     </g>
     <g id="text_37">
      <!-- 1000 -->
      <g transform="translate(781.775381 262.078437) scale(0.1 -0.1)">
       <use xlink:href="#DejaVuSans-31"/>
       <use xlink:href="#DejaVuSans-30" x="63.623047"/>
       <use xlink:href="#DejaVuSans-30" x="127.246094"/>
       <use xlink:href="#DejaVuSans-30" x="190.869141"/>
      </g>
     </g>
    </g>
    <g id="xtick_18">
     <g id="line2d_38">
      <g>
       <use xlink:href="#mffdf4e61ac" x="832.734538" y="247.48" style="stroke: #000000; stroke-width: 0.8"/>
      </g>
     </g>
     <g id="text_38">
      <!-- 1250 -->
      <g transform="translate(820.009538 262.078437) scale(0.1 -0.1)">
       <use xlink:href="#DejaVuSans-31"/>
       <use xlink:href="#DejaVuSans-32" x="63.623047"/>
       <use xlink:href="#DejaVuSans-35" x="127.246094"/>
       <use xlink:href="#DejaVuSans-30" x="190.869141"/>
      </g>
     </g>
    </g>
    <g id="text_39">
     <!-- Time step -->
     <g transform="translate(715.875469 275.756562) scale(0.1 -0.1)">
      <use xlink:href="#DejaVuSans-54"/>
      <use xlink:href="#DejaVuSans-69" x="57.958984"/>
      <use xlink:href="#DejaVuSans-6d" x="85.742188"/>
      <use xlink:href="#DejaVuSans-65" x="183.154297"/>
      <use xlink:href="#DejaVuSans-20" x="244.677734"/>
      <use xlink:href="#DejaVuSans-73" x="276.464844"/>
      <use xlink:href="#DejaVuSans-74" x="328.564453"/>
      <use xlink:href="#DejaVuSans-65" x="367.773438"/>
      <use xlink:href="#DejaVuSans-70" x="429.296875"/>
     </g>
    </g>
   </g>
   <g id="matplotlib.axis_6">
    <g id="ytick_15">
     <g id="line2d_39">
      <g>
       <use xlink:href="#mc452030c32" x="631.66875" y="224.35152" style="stroke: #000000; stroke-width: 0.8"/>
      </g>
     </g>
     <g id="text_40">
      <!-- 0.825 -->
      <g transform="translate(596.040625 228.150739) scale(0.1 -0.1)">
       <use xlink:href="#DejaVuSans-30"/>
       <use xlink:href="#DejaVuSans-2e" x="63.623047"/>
       <use xlink:href="#DejaVuSans-38" x="95.410156"/>
       <use xlink:href="#DejaVuSans-32" x="159.033203"/>
       <use xlink:href="#DejaVuSans-35" x="222.65625"/>
      </g>
     </g>
    </g>
    <g id="ytick_16">
     <g id="line2d_40">
      <g>
       <use xlink:href="#mc452030c32" x="631.66875" y="192.172861" style="stroke: #000000; stroke-width: 0.8"/>
      </g>
     </g>
     <g id="text_41">
      <!-- 0.826 -->
      <g transform="translate(596.040625 195.972079) scale(0.1 -0.1)">
       <use xlink:href="#DejaVuSans-30"/>
       <use xlink:href="#DejaVuSans-2e" x="63.623047"/>
       <use xlink:href="#DejaVuSans-38" x="95.410156"/>
       <use xlink:href="#DejaVuSans-32" x="159.033203"/>
       <use xlink:href="#DejaVuSans-36" x="222.65625"/>
      </g>
     </g>
    </g>
    <g id="ytick_17">
     <g id="line2d_41">
      <g>
       <use xlink:href="#mc452030c32" x="631.66875" y="159.994201" style="stroke: #000000; stroke-width: 0.8"/>
      </g>
     </g>
     <g id="text_42">
      <!-- 0.827 -->
      <g transform="translate(596.040625 163.79342) scale(0.1 -0.1)">
       <use xlink:href="#DejaVuSans-30"/>
       <use xlink:href="#DejaVuSans-2e" x="63.623047"/>
       <use xlink:href="#DejaVuSans-38" x="95.410156"/>
       <use xlink:href="#DejaVuSans-32" x="159.033203"/>
       <use xlink:href="#DejaVuSans-37" x="222.65625"/>
      </g>
     </g>
    </g>
    <g id="ytick_18">
     <g id="line2d_42">
      <g>
       <use xlink:href="#mc452030c32" x="631.66875" y="127.815542" style="stroke: #000000; stroke-width: 0.8"/>
      </g>
     </g>
     <g id="text_43">
      <!-- 0.828 -->
      <g transform="translate(596.040625 131.61476) scale(0.1 -0.1)">
       <use xlink:href="#DejaVuSans-30"/>
       <use xlink:href="#DejaVuSans-2e" x="63.623047"/>
       <use xlink:href="#DejaVuSans-38" x="95.410156"/>
       <use xlink:href="#DejaVuSans-32" x="159.033203"/>
       <use xlink:href="#DejaVuSans-38" x="222.65625"/>
      </g>
     </g>
    </g>
    <g id="ytick_19">
     <g id="line2d_43">
      <g>
       <use xlink:href="#mc452030c32" x="631.66875" y="95.636882" style="stroke: #000000; stroke-width: 0.8"/>
      </g>
     </g>
     <g id="text_44">
      <!-- 0.829 -->
      <g transform="translate(596.040625 99.436101) scale(0.1 -0.1)">
       <use xlink:href="#DejaVuSans-30"/>
       <use xlink:href="#DejaVuSans-2e" x="63.623047"/>
       <use xlink:href="#DejaVuSans-38" x="95.410156"/>
       <use xlink:href="#DejaVuSans-32" x="159.033203"/>
       <use xlink:href="#DejaVuSans-39" x="222.65625"/>
      </g>
     </g>
    </g>
    <g id="ytick_20">
     <g id="line2d_44">
      <g>
       <use xlink:href="#mc452030c32" x="631.66875" y="63.458222" style="stroke: #000000; stroke-width: 0.8"/>
      </g>
     </g>
     <g id="text_45">
      <!-- 0.830 -->
      <g transform="translate(596.040625 67.257441) scale(0.1 -0.1)">
       <use xlink:href="#DejaVuSans-30"/>
       <use xlink:href="#DejaVuSans-2e" x="63.623047"/>
       <use xlink:href="#DejaVuSans-38" x="95.410156"/>
       <use xlink:href="#DejaVuSans-33" x="159.033203"/>
       <use xlink:href="#DejaVuSans-30" x="222.65625"/>
      </g>
     </g>
    </g>
    <g id="text_46">
     <!-- DNAm -->
     <g transform="translate(589.960938 165.66125) rotate(-90) scale(0.1 -0.1)">
      <use xlink:href="#DejaVuSans-44"/>
      <use xlink:href="#DejaVuSans-4e" x="77.001953"/>
      <use xlink:href="#DejaVuSans-41" x="151.806641"/>
      <use xlink:href="#DejaVuSans-6d" x="220.214844"/>
     </g>
    </g>
   </g>
   <g id="line2d_45">
    <path d="M 641.56375 60.961818 
L 641.869623 60.961818 
L 642.02256 63.549889 
L 643.857799 63.549889 
L 644.010736 64.159457 
L 654.25749 64.163052 
L 654.410427 69.199515 
L 655.328047 69.199515 
L 655.480983 69.445918 
L 663.739561 69.445918 
L 663.892498 73.95387 
L 669.551153 73.95387 
L 669.70409 74.369494 
L 670.1629 74.369494 
L 670.315837 76.024967 
L 672.304013 76.024967 
L 672.456949 77.753861 
L 676.433302 77.753861 
L 676.586238 81.797597 
L 676.739175 81.797597 
L 676.892112 90.612564 
L 678.880288 90.612564 
L 679.033224 95.209053 
L 681.786084 95.209053 
L 681.93902 96.52715 
L 683.468387 96.52715 
L 683.621323 101.015693 
L 683.927197 101.015693 
L 684.080133 102.437841 
L 691.574028 102.437841 
L 691.726965 104.017056 
L 695.244507 104.017056 
L 695.397444 104.575221 
L 696.468 104.575221 
L 696.620937 105.412732 
L 698.609113 105.412732 
L 698.76205 106.526011 
L 702.585466 106.52983 
L 702.738402 110.349011 
L 716.961509 110.349011 
L 717.114446 110.629582 
L 717.573255 110.629582 
L 717.726192 111.23896 
L 718.796748 111.23896 
L 718.949685 117.224358 
L 719.714368 117.224358 
L 719.867305 123.025379 
L 720.479051 123.025379 
L 720.631988 123.944993 
L 723.996594 123.944993 
L 724.149531 125.354037 
L 727.514136 125.354037 
L 727.667073 129.124415 
L 730.419932 129.124415 
L 730.572869 133.690967 
L 731.796362 133.690967 
L 731.949299 136.478231 
L 736.078588 136.478231 
L 736.231524 137.893984 
L 740.51375 137.893984 
L 740.666687 142.305403 
L 743.725419 142.305403 
L 743.878356 143.189663 
L 745.560659 143.189663 
L 745.866532 154.376416 
L 749.537011 154.376416 
L 749.689948 156.076591 
L 749.842884 160.37347 
L 756.41916 160.37347 
L 756.572096 164.336682 
L 760.242575 164.336682 
L 760.395512 166.033825 
L 762.536625 166.033825 
L 762.689561 167.360043 
L 764.218928 167.360043 
L 764.371864 169.334923 
L 765.901231 169.334923 
L 766.054167 171.090683 
L 768.501153 171.090683 
L 768.65409 173.819896 
L 769.265837 173.819896 
L 769.418773 177.884457 
L 769.57171 177.884457 
L 769.724646 180.249527 
L 778.136161 180.249527 
L 778.289098 180.719642 
L 781.653704 180.719642 
L 781.80664 181.909469 
L 783.64188 181.909469 
L 783.794816 184.393301 
L 786.700612 184.393301 
L 787.006486 189.735085 
L 793.888634 189.735085 
L 794.041571 192.489408 
L 798.323796 192.489408 
L 798.476733 195.027115 
L 814.840952 195.027115 
L 814.993889 198.194446 
L 825.087707 198.194446 
L 825.240643 198.598613 
L 825.39358 201.755078 
L 826.617073 201.755078 
L 826.77001 204.415581 
L 830.899299 204.415581 
L 831.052235 209.034317 
L 839.46375 209.034317 
L 839.46375 209.034317 
" clip-path="url(#p5fdc5fd960)" style="fill: none; stroke: #bebada; stroke-width: 2; stroke-linecap: square"/>
   </g>
   <g id="line2d_46">
    <path d="M 641.56375 60.961818 
L 642.48137 60.961818 
L 642.787243 61.101456 
L 643.246053 61.101456 
L 643.39899 63.634054 
L 644.622483 63.634054 
L 644.775419 64.884078 
L 650.434075 64.884078 
L 650.587011 70.372405 
L 653.951617 70.372405 
L 654.104554 72.842809 
L 659.457336 72.842809 
L 659.610272 74.088776 
L 661.904322 74.088776 
L 662.057259 76.05126 
L 666.798294 76.05126 
L 666.951231 78.275169 
L 668.480597 78.275169 
L 668.633534 79.306662 
L 668.78647 79.306662 
L 668.939407 82.093816 
L 670.468773 82.093816 
L 670.62171 82.501237 
L 670.774646 88.068657 
L 670.927583 88.068657 
L 671.08052 90.125448 
L 676.433302 90.125448 
L 676.586238 91.284153 
L 678.880288 91.284153 
L 679.033224 96.102488 
L 679.186161 96.102488 
L 679.339098 104.823962 
L 682.244894 104.823962 
L 682.39783 109.763539 
L 684.69188 109.763539 
L 684.997753 113.873336 
L 685.6095 113.873336 
L 685.762436 116.452429 
L 687.138866 116.452429 
L 687.291803 116.770532 
L 691.726965 116.770532 
L 691.879901 121.847913 
L 703.656022 121.847913 
L 703.808959 127.805059 
L 708.855867 127.805059 
L 709.008804 130.142765 
L 710.844044 130.142765 
L 710.99698 132.023711 
L 712.37341 132.023711 
L 712.526347 136.291999 
L 713.74984 136.291999 
L 713.902776 137.076982 
L 716.043889 137.076982 
L 716.196826 141.373178 
L 716.808572 141.373178 
L 716.961509 142.173589 
L 720.631988 142.173589 
L 720.784925 146.640884 
L 722.926037 146.640884 
L 723.231911 146.78678 
L 723.690721 146.78678 
L 723.843657 147.164419 
L 725.373024 147.164419 
L 725.52596 150.771614 
L 742.34899 150.771614 
L 742.501926 151.674788 
L 742.960736 151.674788 
L 743.113673 159.314374 
L 743.419546 159.314374 
L 743.572483 161.129828 
L 748.925265 161.129828 
L 749.078201 163.233387 
L 755.348603 163.233387 
L 755.50154 164.238148 
L 767.583534 164.238148 
L 767.73647 167.53223 
L 767.889407 167.746511 
L 772.018696 167.746511 
L 772.171633 171.380959 
L 776.453858 171.380959 
L 776.606795 173.953301 
L 777.677351 173.953301 
L 777.830288 178.614876 
L 778.594971 178.614876 
L 778.747908 182.25276 
L 779.512591 182.25276 
L 779.665527 184.701991 
L 785.782993 184.701991 
L 785.935929 190.29328 
L 791.747521 190.29328 
L 791.900458 193.508043 
L 795.87681 193.508043 
L 796.029747 199.332552 
L 796.641493 199.332552 
L 796.79443 203.830154 
L 800.159036 203.842285 
L 800.311973 207.994196 
L 801.229592 207.994196 
L 801.382529 209.999658 
L 803.523642 209.999658 
L 803.676578 218.715974 
L 804.135388 218.715974 
L 804.288325 219.468076 
L 804.900071 219.468076 
L 805.053008 220.420171 
L 810.8646 220.420171 
L 811.017537 222.91371 
L 813.923333 222.91371 
L 814.076269 229.600604 
L 815.452699 229.600604 
L 815.605636 230.692714 
L 822.334847 230.692714 
L 822.487784 231.290618 
L 823.252467 231.290618 
L 823.405404 233.397684 
L 830.899299 233.397684 
L 831.052235 238.598182 
L 839.46375 238.598182 
L 839.46375 238.598182 
" clip-path="url(#p5fdc5fd960)" style="fill: none; stroke: #fb8072; stroke-width: 2; stroke-linecap: square"/>
   </g>
   <g id="line2d_47">
    <path d="M 641.56375 60.961818 
L 641.716687 63.270671 
L 644.163673 63.270671 
L 644.316609 66.860796 
L 651.963441 66.860796 
L 652.116378 73.078476 
L 659.151463 73.078476 
L 659.304399 77.942603 
L 661.445512 77.942603 
L 661.598449 85.450354 
L 662.363132 85.450354 
L 662.516068 86.42171 
L 662.974878 86.42171 
L 663.127815 93.071205 
L 664.963054 93.071205 
L 665.115991 95.352595 
L 669.092344 95.352595 
L 669.24528 97.157225 
L 679.033224 97.157225 
L 679.186161 101.252071 
L 681.174337 101.252071 
L 681.327274 101.501417 
L 684.080133 101.501417 
L 684.23307 101.729037 
L 685.15069 101.729037 
L 685.303626 104.296346 
L 694.632761 104.296346 
L 694.785697 109.610202 
L 703.350149 109.610202 
L 703.503085 113.099986 
L 711.149917 113.099986 
L 711.302854 114.560276 
L 718.949685 114.560276 
L 719.102622 119.37053 
L 722.314291 119.37053 
L 722.467228 122.081759 
L 729.502313 122.081759 
L 729.655249 124.682163 
L 731.184616 124.682163 
L 731.337552 124.846866 
L 732.102235 124.846866 
L 732.255172 132.611408 
L 736.690334 132.64202 
L 736.843271 133.875894 
L 748.160582 133.875894 
L 748.313518 137.441813 
L 749.537011 137.441813 
L 749.689948 138.617245 
L 757.336779 138.617245 
L 757.489716 140.947426 
L 757.642653 141.39108 
L 760.548449 141.39108 
L 760.701385 145.064595 
L 764.065991 145.064595 
L 764.218928 147.002548 
L 764.677738 147.002548 
L 764.830674 151.926657 
L 765.442421 151.926657 
L 765.595357 154.031634 
L 770.795203 154.031634 
L 770.948139 154.434779 
L 773.700999 154.434779 
L 773.853935 158.951571 
L 774.006872 158.951571 
L 774.159809 161.800086 
L 784.5595 161.840764 
L 784.712436 164.498245 
L 786.700612 164.498245 
L 786.853549 167.249817 
L 802.758959 167.249817 
L 802.911895 169.820483 
L 803.064832 169.820483 
L 803.217769 171.169158 
L 806.123565 171.169158 
L 806.276501 171.790455 
L 808.570551 171.790455 
L 808.723487 172.388461 
L 817.746748 172.388461 
L 817.899685 175.420985 
L 820.805481 175.420985 
L 820.958418 176.956281 
L 821.723101 176.956281 
L 821.876037 183.897814 
L 824.170087 183.897814 
L 824.323024 186.932075 
L 827.687629 186.932075 
L 827.840566 191.773405 
L 830.134616 191.798185 
L 830.287552 197.028977 
L 831.663982 197.028977 
L 831.816918 202.405598 
L 831.969855 202.405598 
L 832.122792 204.746218 
L 832.275728 204.746218 
L 832.428665 207.557448 
L 832.581602 207.557448 
L 832.734538 210.684435 
L 833.499221 210.684435 
L 833.652158 212.792004 
L 835.334461 212.792004 
L 835.487398 220.910019 
L 837.016764 220.910019 
L 837.169701 221.763578 
L 839.46375 221.763578 
L 839.46375 221.763578 
" clip-path="url(#p5fdc5fd960)" style="fill: none; stroke: #80b1d3; stroke-width: 2; stroke-linecap: square"/>
   </g>
   <g id="patch_13">
    <path d="M 631.66875 247.48 
L 631.66875 52.08 
" style="fill: none; stroke: #000000; stroke-width: 0.8; stroke-linejoin: miter; stroke-linecap: square"/>
   </g>
   <g id="patch_14">
    <path d="M 849.35875 247.48 
L 849.35875 52.08 
" style="fill: none; stroke: #000000; stroke-width: 0.8; stroke-linejoin: miter; stroke-linecap: square"/>
   </g>
   <g id="patch_15">
    <path d="M 631.66875 247.48 
L 849.35875 247.48 
" style="fill: none; stroke: #000000; stroke-width: 0.8; stroke-linejoin: miter; stroke-linecap: square"/>
   </g>
   <g id="patch_16">
    <path d="M 631.66875 52.08 
L 849.35875 52.08 
" style="fill: none; stroke: #000000; stroke-width: 0.8; stroke-linejoin: miter; stroke-linecap: square"/>
   </g>
   <g id="text_47">
    <!-- cg01644850, EffSize=-0.005 -->
    <g transform="translate(654.35 46.08) scale(0.12 -0.12)">
     <defs>
      <path id="DejaVuSans-2d" d="M 313 2009 
L 1997 2009 
L 1997 1497 
L 313 1497 
L 313 2009 
z
" transform="scale(0.015625)"/>
     </defs>
     <use xlink:href="#DejaVuSans-63"/>
     <use xlink:href="#DejaVuSans-67" x="54.980469"/>
     <use xlink:href="#DejaVuSans-30" x="118.457031"/>
     <use xlink:href="#DejaVuSans-31" x="182.080078"/>
     <use xlink:href="#DejaVuSans-36" x="245.703125"/>
     <use xlink:href="#DejaVuSans-34" x="309.326172"/>
     <use xlink:href="#DejaVuSans-34" x="372.949219"/>
     <use xlink:href="#DejaVuSans-38" x="436.572266"/>
     <use xlink:href="#DejaVuSans-35" x="500.195312"/>
     <use xlink:href="#DejaVuSans-30" x="563.818359"/>
     <use xlink:href="#DejaVuSans-2c" x="627.441406"/>
     <use xlink:href="#DejaVuSans-20" x="659.228516"/>
     <use xlink:href="#DejaVuSans-45" x="691.015625"/>
     <use xlink:href="#DejaVuSans-66" x="754.199219"/>
     <use xlink:href="#DejaVuSans-66" x="789.404297"/>
     <use xlink:href="#DejaVuSans-53" x="824.609375"/>
     <use xlink:href="#DejaVuSans-69" x="888.085938"/>
     <use xlink:href="#DejaVuSans-7a" x="915.869141"/>
     <use xlink:href="#DejaVuSans-65" x="968.359375"/>
     <use xlink:href="#DejaVuSans-3d" x="1029.882812"/>
     <use xlink:href="#DejaVuSans-2d" x="1113.671875"/>
     <use xlink:href="#DejaVuSans-30" x="1149.755859"/>
     <use xlink:href="#DejaVuSans-2e" x="1213.378906"/>
     <use xlink:href="#DejaVuSans-30" x="1245.166016"/>
     <use xlink:href="#DejaVuSans-30" x="1308.789062"/>
     <use xlink:href="#DejaVuSans-35" x="1372.412109"/>
    </g>
   </g>
  </g>
  <g id="text_48">
   <!-- DNAm dynamics for three independent samples, optimized parameters -->
   <g transform="translate(213.618437 16.318125) scale(0.12 -0.12)">
    <defs>
     <path id="DejaVuSans-64" d="M 2906 2969 
L 2906 4863 
L 3481 4863 
L 3481 0 
L 2906 0 
L 2906 525 
Q 2725 213 2448 61 
Q 2172 -91 1784 -91 
Q 1150 -91 751 415 
Q 353 922 353 1747 
Q 353 2572 751 3078 
Q 1150 3584 1784 3584 
Q 2172 3584 2448 3432 
Q 2725 3281 2906 2969 
z
M 947 1747 
Q 947 1113 1208 752 
Q 1469 391 1925 391 
Q 2381 391 2643 752 
Q 2906 1113 2906 1747 
Q 2906 2381 2643 2742 
Q 2381 3103 1925 3103 
Q 1469 3103 1208 2742 
Q 947 2381 947 1747 
z
" transform="scale(0.015625)"/>
     <path id="DejaVuSans-79" d="M 2059 -325 
Q 1816 -950 1584 -1140 
Q 1353 -1331 966 -1331 
L 506 -1331 
L 506 -850 
L 844 -850 
Q 1081 -850 1212 -737 
Q 1344 -625 1503 -206 
L 1606 56 
L 191 3500 
L 800 3500 
L 1894 763 
L 2988 3500 
L 3597 3500 
L 2059 -325 
z
" transform="scale(0.015625)"/>
     <path id="DejaVuSans-6e" d="M 3513 2113 
L 3513 0 
L 2938 0 
L 2938 2094 
Q 2938 2591 2744 2837 
Q 2550 3084 2163 3084 
Q 1697 3084 1428 2787 
Q 1159 2491 1159 1978 
L 1159 0 
L 581 0 
L 581 3500 
L 1159 3500 
L 1159 2956 
Q 1366 3272 1645 3428 
Q 1925 3584 2291 3584 
Q 2894 3584 3203 3211 
Q 3513 2838 3513 2113 
z
" transform="scale(0.015625)"/>
     <path id="DejaVuSans-61" d="M 2194 1759 
Q 1497 1759 1228 1600 
Q 959 1441 959 1056 
Q 959 750 1161 570 
Q 1363 391 1709 391 
Q 2188 391 2477 730 
Q 2766 1069 2766 1631 
L 2766 1759 
L 2194 1759 
z
M 3341 1997 
L 3341 0 
L 2766 0 
L 2766 531 
Q 2569 213 2275 61 
Q 1981 -91 1556 -91 
Q 1019 -91 701 211 
Q 384 513 384 1019 
Q 384 1609 779 1909 
Q 1175 2209 1959 2209 
L 2766 2209 
L 2766 2266 
Q 2766 2663 2505 2880 
Q 2244 3097 1772 3097 
Q 1472 3097 1187 3025 
Q 903 2953 641 2809 
L 641 3341 
Q 956 3463 1253 3523 
Q 1550 3584 1831 3584 
Q 2591 3584 2966 3190 
Q 3341 2797 3341 1997 
z
" transform="scale(0.015625)"/>
     <path id="DejaVuSans-6f" d="M 1959 3097 
Q 1497 3097 1228 2736 
Q 959 2375 959 1747 
Q 959 1119 1226 758 
Q 1494 397 1959 397 
Q 2419 397 2687 759 
Q 2956 1122 2956 1747 
Q 2956 2369 2687 2733 
Q 2419 3097 1959 3097 
z
M 1959 3584 
Q 2709 3584 3137 3096 
Q 3566 2609 3566 1747 
Q 3566 888 3137 398 
Q 2709 -91 1959 -91 
Q 1206 -91 779 398 
Q 353 888 353 1747 
Q 353 2609 779 3096 
Q 1206 3584 1959 3584 
z
" transform="scale(0.015625)"/>
     <path id="DejaVuSans-72" d="M 2631 2963 
Q 2534 3019 2420 3045 
Q 2306 3072 2169 3072 
Q 1681 3072 1420 2755 
Q 1159 2438 1159 1844 
L 1159 0 
L 581 0 
L 581 3500 
L 1159 3500 
L 1159 2956 
Q 1341 3275 1631 3429 
Q 1922 3584 2338 3584 
Q 2397 3584 2469 3576 
Q 2541 3569 2628 3553 
L 2631 2963 
z
" transform="scale(0.015625)"/>
     <path id="DejaVuSans-68" d="M 3513 2113 
L 3513 0 
L 2938 0 
L 2938 2094 
Q 2938 2591 2744 2837 
Q 2550 3084 2163 3084 
Q 1697 3084 1428 2787 
Q 1159 2491 1159 1978 
L 1159 0 
L 581 0 
L 581 4863 
L 1159 4863 
L 1159 2956 
Q 1366 3272 1645 3428 
Q 1925 3584 2291 3584 
Q 2894 3584 3203 3211 
Q 3513 2838 3513 2113 
z
" transform="scale(0.015625)"/>
     <path id="DejaVuSans-6c" d="M 603 4863 
L 1178 4863 
L 1178 0 
L 603 0 
L 603 4863 
z
" transform="scale(0.015625)"/>
    </defs>
    <use xlink:href="#DejaVuSans-44"/>
    <use xlink:href="#DejaVuSans-4e" x="77.001953"/>
    <use xlink:href="#DejaVuSans-41" x="151.806641"/>
    <use xlink:href="#DejaVuSans-6d" x="220.214844"/>
    <use xlink:href="#DejaVuSans-20" x="317.626953"/>
    <use xlink:href="#DejaVuSans-64" x="349.414062"/>
    <use xlink:href="#DejaVuSans-79" x="412.890625"/>
    <use xlink:href="#DejaVuSans-6e" x="472.070312"/>
    <use xlink:href="#DejaVuSans-61" x="535.449219"/>
    <use xlink:href="#DejaVuSans-6d" x="596.728516"/>
    <use xlink:href="#DejaVuSans-69" x="694.140625"/>
    <use xlink:href="#DejaVuSans-63" x="721.923828"/>
    <use xlink:href="#DejaVuSans-73" x="776.904297"/>
    <use xlink:href="#DejaVuSans-20" x="829.003906"/>
    <use xlink:href="#DejaVuSans-66" x="860.791016"/>
    <use xlink:href="#DejaVuSans-6f" x="895.996094"/>
    <use xlink:href="#DejaVuSans-72" x="957.177734"/>
    <use xlink:href="#DejaVuSans-20" x="998.291016"/>
    <use xlink:href="#DejaVuSans-74" x="1030.078125"/>
    <use xlink:href="#DejaVuSans-68" x="1069.287109"/>
    <use xlink:href="#DejaVuSans-72" x="1132.666016"/>
    <use xlink:href="#DejaVuSans-65" x="1171.529297"/>
    <use xlink:href="#DejaVuSans-65" x="1233.052734"/>
    <use xlink:href="#DejaVuSans-20" x="1294.576172"/>
    <use xlink:href="#DejaVuSans-69" x="1326.363281"/>
    <use xlink:href="#DejaVuSans-6e" x="1354.146484"/>
    <use xlink:href="#DejaVuSans-64" x="1417.525391"/>
    <use xlink:href="#DejaVuSans-65" x="1481.001953"/>
    <use xlink:href="#DejaVuSans-70" x="1542.525391"/>
    <use xlink:href="#DejaVuSans-65" x="1606.001953"/>
    <use xlink:href="#DejaVuSans-6e" x="1667.525391"/>
    <use xlink:href="#DejaVuSans-64" x="1730.904297"/>
    <use xlink:href="#DejaVuSans-65" x="1794.380859"/>
    <use xlink:href="#DejaVuSans-6e" x="1855.904297"/>
    <use xlink:href="#DejaVuSans-74" x="1919.283203"/>
    <use xlink:href="#DejaVuSans-20" x="1958.492188"/>
    <use xlink:href="#DejaVuSans-73" x="1990.279297"/>
    <use xlink:href="#DejaVuSans-61" x="2042.378906"/>
    <use xlink:href="#DejaVuSans-6d" x="2103.658203"/>
    <use xlink:href="#DejaVuSans-70" x="2201.070312"/>
    <use xlink:href="#DejaVuSans-6c" x="2264.546875"/>
    <use xlink:href="#DejaVuSans-65" x="2292.330078"/>
    <use xlink:href="#DejaVuSans-73" x="2353.853516"/>
    <use xlink:href="#DejaVuSans-2c" x="2405.953125"/>
    <use xlink:href="#DejaVuSans-20" x="2437.740234"/>
    <use xlink:href="#DejaVuSans-6f" x="2469.527344"/>
    <use xlink:href="#DejaVuSans-70" x="2530.708984"/>
    <use xlink:href="#DejaVuSans-74" x="2594.185547"/>
    <use xlink:href="#DejaVuSans-69" x="2633.394531"/>
    <use xlink:href="#DejaVuSans-6d" x="2661.177734"/>
    <use xlink:href="#DejaVuSans-69" x="2758.589844"/>
    <use xlink:href="#DejaVuSans-7a" x="2786.373047"/>
    <use xlink:href="#DejaVuSans-65" x="2838.863281"/>
    <use xlink:href="#DejaVuSans-64" x="2900.386719"/>
    <use xlink:href="#DejaVuSans-20" x="2963.863281"/>
    <use xlink:href="#DejaVuSans-70" x="2995.650391"/>
    <use xlink:href="#DejaVuSans-61" x="3059.126953"/>
    <use xlink:href="#DejaVuSans-72" x="3120.40625"/>
    <use xlink:href="#DejaVuSans-61" x="3161.519531"/>
    <use xlink:href="#DejaVuSans-6d" x="3222.798828"/>
    <use xlink:href="#DejaVuSans-65" x="3320.210938"/>
    <use xlink:href="#DejaVuSans-74" x="3381.734375"/>
    <use xlink:href="#DejaVuSans-65" x="3420.943359"/>
    <use xlink:href="#DejaVuSans-72" x="3482.466797"/>
    <use xlink:href="#DejaVuSans-73" x="3523.580078"/>
   </g>
  </g>
 </g>
 <defs>
  <clipPath id="p76a1067772">
   <rect x="62.86875" y="52.08" width="217.69" height="195.4"/>
  </clipPath>
  <clipPath id="p3473bbfb95">
   <rect x="347.26875" y="52.08" width="217.69" height="195.4"/>
  </clipPath>
  <clipPath id="p5fdc5fd960">
   <rect x="631.66875" y="52.08" width="217.69" height="195.4"/>
  </clipPath>
 </defs>
</svg>
